<svg id="Capa_1" enable-background="new 0 0 512 512" height="512" viewBox="0 0 512 512" width="512" xmlns="http://www.w3.org/2000/svg"><g><path d="m427.087 113.26c1.754.351 8.98 1.667 18.578 1.667 14.79 0 35.212-3.126 49.911-17.726 15.008-14.907 19.762-37.261 14.131-66.442-1.161-6.018-5.867-10.724-11.886-11.886-29.184-5.634-51.536-.878-66.442 14.131-24.075 24.238-16.951 64.031-16.059 68.489 1.188 5.938 5.829 10.579 11.767 11.767z" fill="#fabe2c"/><path d="m305.577 18.874c-6.018 1.161-10.724 5.867-11.886 11.886-5.631 29.181-.877 51.535 14.131 66.442 14.701 14.601 35.12 17.726 49.911 17.726 9.596 0 16.824-1.316 18.578-1.667 5.938-1.187 10.579-5.829 11.766-11.766.892-4.458 8.016-44.251-16.059-68.489-14.906-15.009-37.261-19.764-66.441-14.132z" fill="#fed843"/><path d="m497.822 122.79c-29.18-5.632-51.535-.877-66.442 14.13-24.075 24.238-16.951 64.031-16.059 68.489 1.187 5.937 5.829 10.579 11.766 11.766 1.754.351 8.98 1.667 18.578 1.667 14.79 0 35.212-3.126 49.911-17.726 15.008-14.907 19.762-37.261 14.131-66.442-1.161-6.016-5.867-10.723-11.885-11.884z" fill="#fabe2c"/><path d="m305.577 122.79c-6.018 1.161-10.724 5.868-11.886 11.886-5.631 29.181-.877 51.535 14.131 66.442 14.701 14.601 35.12 17.726 49.911 17.726 9.596 0 16.824-1.316 18.578-1.667 5.938-1.187 10.579-5.829 11.766-11.766.892-4.458 8.016-44.251-16.059-68.489-14.907-15.01-37.261-19.764-66.441-14.132z" fill="#fed843"/><path d="m401.699.004v270.997c-8.28 0-15-6.72-15-15v-240.997c0-8.28 6.72-15 15-15z" fill="#fabe2c"/><path d="m401.699.004v270.997c8.28 0 15-6.72 15-15v-240.997c0-8.28-6.72-15-15-15z" fill="#ff9100"/><path d="m173.638 381.287v130.708h-37.78c-22.46 0-40.75-18.28-40.75-40.75v-74.959c0-8.29 6.72-15 15-15h63.53z" fill="#92d2ff"/><path d="m173.638 167.09v111.999h-135.648c-6.43 0-12.14-4.09-14.21-10.17-2.06-6.08-.03-12.81 5.07-16.72l4.05-3.11 79.829-61.339c17.929-13.78 39.419-20.66 60.909-20.66z" fill="#f0f9ff"/><path d="m173.638 249.089v202.688c-27.407 0-52.43-4.628-78.529-17.54-56.3-27.83-95.109-85.869-95.109-152.809v-17.34c0-8.28 6.71-15 15-15h158.638z" fill="#caf7ff"/><path d="m252.157 396.287v74.959c0 22.47-18.28 40.75-40.75 40.75h-37.77v-130.709h63.519c8.281 0 15.001 6.71 15.001 15z" fill="#7898f2"/><path d="m323.486 268.918c-2.07 6.08-7.78 10.17-14.21 10.17h-135.638v-111.998c21.48 0 42.97 6.88 60.899 20.66l79.829 61.339 4.05 3.11c5.1 3.91 7.13 10.64 5.07 16.719z" fill="#d2e6fb"/><path d="m347.266 264.089v17.34c0 66.939-38.81 124.989-95.109 152.808-26.341 13.031-51.432 17.54-78.519 17.54v-202.688h158.628c8.29 0 15 6.72 15 15z" fill="#92d2ff"/></g></svg>