<svg id="Layer_1" enable-background="new 0 0 512 512" height="512" viewBox="0 0 512 512" width="512" xmlns="http://www.w3.org/2000/svg"><g><g><path d="m327.434 153.784c-7.497 0-14.793-1.309-21.735-3.894l-99.429-.039c-6.972 2.611-14.302 3.933-21.836 3.933-34.403 0-62.392-27.989-62.392-62.392 0-20.798 10.303-40.136 27.561-51.729 13.719-9.216 30.26-12.554 46.104-9.647 14.137-18.766 36.291-30.016 60.294-30.016 23.987 0 46.138 11.244 60.278 29.995 3.658-.662 7.385-.995 11.155-.995 34.402 0 62.392 27.989 62.392 62.392s-27.99 62.392-62.392 62.392z" fill="#7d0"/></g><path d="m327.434 29c-3.771 0-7.497.333-11.155.995-14.14-18.751-36.291-29.995-60.278-29.995v149.87l49.698.019c6.942 2.585 14.238 3.894 21.735 3.894 34.402 0 62.392-27.989 62.392-62.392s-27.99-62.391-62.392-62.391z" fill="#00ab5e"/><g><path d="m326.042 148c-35.29 0-64-29.832-64-66.5s28.71-66.5 64-66.5 64 29.832 64 66.5-28.71 66.5-64 66.5z" fill="#be003b"/></g><g><path d="m256 241c-44.388 0-80.5-36.112-80.5-80.5s36.113-80.5 80.5-80.5 80.5 36.112 80.5 80.5-36.112 80.5-80.5 80.5z" fill="#ff4949"/></g><path d="m256 80v161c44.388 0 80.5-36.112 80.5-80.5s-36.112-80.5-80.5-80.5z" fill="#ff193d"/><g><path d="m288.496 337h-151.514c-8.284 0-15-6.716-15-15v-233c0-5.112 2.604-9.873 6.909-12.63 4.305-2.759 9.717-3.133 14.362-.996 43.608 20.068 81.614 53.406 109.911 96.41 28.601 43.466 45.989 94.999 50.286 149.028.331 4.172-1.095 8.292-3.935 11.367-2.839 3.072-6.834 4.821-11.019 4.821z" fill="#ffcd00"/></g><g><path d="m375.018 337h-151.513c-4.185 0-8.179-1.749-11.019-4.822-2.839-3.074-4.266-7.195-3.934-11.367 4.296-54.029 21.684-105.562 50.284-149.028 28.297-43.004 66.304-76.342 109.911-96.41 4.644-2.137 10.058-1.762 14.361.996 4.306 2.758 6.909 7.518 6.909 12.63v233c.001 8.285-6.715 15.001-14.999 15.001z" fill="#fdbf00"/></g><path d="m383.109 76.37c-4.304-2.758-9.718-3.133-14.361-.996-43.607 20.068-81.614 53.406-109.911 96.41-.959 1.457-1.902 2.924-2.836 4.399v160.817h119.017c8.284 0 15-6.716 15-15v-233c0-5.112-2.604-9.873-6.909-12.63z" fill="#ff9100"/><g><path d="m319.042 512h-126.083c-41.355 0-75-33.645-75-75v-174c0-5.501 3.011-10.561 7.846-13.184 4.836-2.624 10.72-2.389 15.33.608l22.584 14.684 22.584-14.684c4.972-3.232 11.381-3.232 16.353 0l22.584 14.684 22.584-14.684c4.972-3.232 11.381-3.232 16.353 0l22.584 14.684 22.583-14.684c4.973-3.233 11.381-3.233 16.354 0l22.584 14.684 22.583-14.684c4.612-2.999 10.496-3.232 15.33-.609 4.835 2.624 7.847 7.683 7.847 13.184v174c-.001 41.356-33.645 75.001-75 75.001z" fill="#fff4f4"/></g><path d="m386.195 249.816c-4.834-2.624-10.718-2.39-15.33.609l-22.583 14.684-22.584-14.684c-4.973-3.232-11.381-3.233-16.354 0l-22.583 14.684-22.584-14.684c-2.486-1.617-5.331-2.425-8.177-2.425v264h63.042c41.354 0 74.999-33.645 74.999-75v-174c0-5.501-3.011-10.561-7.846-13.184z" fill="#f6efea"/></g></svg>