<svg id="Capa_1" enable-background="new 0 0 512 512" height="512" viewBox="0 0 512 512" width="512" xmlns="http://www.w3.org/2000/svg"><g><path d="m359.951 487.557c-94.122 0-119.214-111.406-106.555-237.26 5.966-59.312 52.924-88.021 123.922-88.021s127.219 28.709 133.185 88.021c12.658 125.854-56.43 237.26-150.552 237.26z" fill="#f6ca8e"/><path d="m147.948 229.748c-3.475 0-6.995-.91-10.195-2.824-9.432-5.64-12.506-17.86-6.865-27.292 10.862-18.165 11.71-43.541 2.107-63.145-6.35-12.963-19.903-29.142-48.411-32.605-10.91-1.325-18.68-11.244-17.355-22.154s11.242-18.682 22.154-17.355c36.07 4.381 64.251 23.775 79.354 54.607 15.525 31.693 14.076 71.369-3.691 101.079-3.727 6.232-10.328 9.689-17.098 9.689z" fill="#89d47f"/><path d="m305.038 105.542c7.512-9.356 16.555-15.407 24.895-19.308 16.218-7.586 23.215-26.883 15.63-43.101-7.586-16.218-26.886-23.215-43.101-15.63-31.023 14.511-54.185 38.866-66.747 69.005-12.563 30.139-30.938 45.37-53.069 56.779v50.046h158.726v-44.573c-20.324-5.032-49.861-33.99-36.334-53.218z" fill="#b0da87"/><path d="m256 103.867c-8.28 0-16.303.328-24.083.956-12.347 24.726-29.275 38.157-49.271 48.466v50.046h158.726v-44.573c-19.536-4.838-47.577-31.781-37.708-50.94-14.825-2.624-30.723-3.955-47.664-3.955z" fill="#89d47f"/><path d="m152.049 487.557c94.122 0 119.214-111.406 106.555-237.26-5.966-59.312-52.924-88.021-123.922-88.021s-127.219 28.709-133.185 88.021c-12.658 125.854 56.43 237.26 150.552 237.26z" fill="#f6ca8e"/><path d="m258.604 250.297c-5.966-59.312-52.924-88.021-123.922-88.021-9.103 0-17.961.476-26.503 1.423-14.226 18.742-22.883 41.246-25.442 66.686-4.748 47.207-2.2 93.76 7.37 134.624 7.312 32.293 20.166 93.934-39.792 70.051 26.565 32.547 61.907 52.497 101.733 52.497 94.123 0 119.215-111.406 106.556-237.26z" fill="#f3a977"/><path d="m253.396 250.297c5.966-59.312 52.924-88.021 123.922-88.021 9.103 0 17.961.476 26.503 1.423 14.226 18.742 22.883 41.246 25.442 66.686 4.749 47.207 2.2 93.76-7.37 134.624-7.312 32.293-20.166 93.934 39.792 70.051-26.565 32.547-61.907 52.497-101.733 52.497-94.124 0-119.215-111.406-106.556-237.26z" fill="#f3a977"/><path d="m256 487.557c100.59 0 150.916-119.062 137.387-253.564-6.376-63.388-61.51-94.07-137.387-94.07s-131.011 30.682-137.387 94.07c-13.529 134.502 36.797 253.564 137.387 253.564z" fill="#f6ca8e"/><g><g fill="#fff"><ellipse cx="169.913" cy="305.624" rx="31.765" ry="25.296"/><ellipse cx="342.087" cy="305.624" rx="31.765" ry="25.296"/></g><g fill="#4e5660"><path d="m188.425 288.462c-4.142 0-7.5-3.358-7.5-7.5v-12.362c0-4.142 3.358-7.5 7.5-7.5s7.5 3.358 7.5 7.5v12.362c0 4.142-3.358 7.5-7.5 7.5z"/><path d="m256 296.503c-8.995 0-17.55-3.896-23.47-10.689-2.721-3.123-2.396-7.86.727-10.582 3.124-2.721 7.86-2.397 10.582.727 3.07 3.523 7.503 5.544 12.162 5.544 4.658 0 9.091-2.021 12.161-5.544 2.722-3.123 7.46-3.447 10.582-.727 3.122 2.722 3.448 7.46.726 10.582-5.921 6.793-14.475 10.689-23.47 10.689z"/><path d="m340.287 288.117c-4.143 0-7.5-3.358-7.5-7.5 0-3.764-3.061-6.826-6.825-6.826s-6.826 3.062-6.826 6.826c0 4.142-3.357 7.5-7.5 7.5s-7.5-3.358-7.5-7.5c0-12.035 9.791-21.826 21.826-21.826 12.034 0 21.825 9.791 21.825 21.826 0 4.142-3.357 7.5-7.5 7.5z"/></g></g></g></svg>