<svg id="Capa_1" enable-background="new 0 0 510.256 510.256" height="512" viewBox="0 0 510.256 510.256" width="512" xmlns="http://www.w3.org/2000/svg"><g><path d="m457.121 67.157c-10.407-27.102-36.662-46.347-67.427-46.347h-299.43c-39.886 0-72.221 32.335-72.221 72.221v299.429c0 30.765 19.246 57.021 46.347 67.427 10.407 27.102 36.662 46.347 67.427 46.347h299.429c39.887 0 72.221-32.334 72.221-72.221v-299.429c.001-30.765-19.245-57.02-46.346-67.427z" fill="#e9c278"/><g fill="#f9fbfc"><path d="m499.831 137.889c-1.712 0-3.1 1.388-3.1 3.1 0 1.713 1.388 3.101 3.1 3.101s3.1-1.388 3.1-3.101c0-1.712-1.388-3.1-3.1-3.1z"/><path d="m499.831 157.874c-1.712 0-3.1 1.389-3.1 3.101s1.388 3.1 3.1 3.1 3.1-1.388 3.1-3.1-1.388-3.101-3.1-3.101z"/><path d="m499.831 177.861c-1.712 0-3.1 1.388-3.1 3.1s1.388 3.1 3.1 3.1 3.1-1.388 3.1-3.1c0-1.713-1.388-3.1-3.1-3.1z"/><path d="m499.831 197.846c-1.712 0-3.1 1.388-3.1 3.1s1.388 3.101 3.1 3.101 3.1-1.389 3.1-3.101-1.388-3.1-3.1-3.1z"/><path d="m499.831 217.831c-1.712 0-3.1 1.388-3.1 3.101 0 1.712 1.388 3.1 3.1 3.1s3.1-1.388 3.1-3.1c0-1.713-1.388-3.101-3.1-3.101z"/><path d="m499.831 237.817c-1.712 0-3.1 1.388-3.1 3.1s1.388 3.1 3.1 3.1 3.1-1.388 3.1-3.1-1.388-3.1-3.1-3.1z"/><path d="m499.831 257.802c-1.712 0-3.1 1.388-3.1 3.1s1.388 3.1 3.1 3.1 3.1-1.388 3.1-3.1-1.388-3.1-3.1-3.1z"/><path d="m499.831 277.787c-1.712 0-3.1 1.388-3.1 3.1 0 1.713 1.388 3.101 3.1 3.101s3.1-1.388 3.1-3.101c0-1.712-1.388-3.1-3.1-3.1z"/><path d="m499.831 297.772c-1.712 0-3.1 1.389-3.1 3.101s1.388 3.1 3.1 3.1 3.1-1.388 3.1-3.1-1.388-3.101-3.1-3.101z"/><path d="m499.831 317.759c-1.712 0-3.1 1.388-3.1 3.1s1.388 3.1 3.1 3.1 3.1-1.388 3.1-3.1c0-1.713-1.388-3.1-3.1-3.1z"/><path d="m499.831 337.744c-1.712 0-3.1 1.388-3.1 3.1s1.388 3.101 3.1 3.101 3.1-1.389 3.1-3.101c0-1.713-1.388-3.1-3.1-3.1z"/><path d="m499.831 357.729c-1.712 0-3.1 1.388-3.1 3.101 0 1.712 1.388 3.1 3.1 3.1s3.1-1.388 3.1-3.1c0-1.713-1.388-3.101-3.1-3.101z"/><path d="m499.831 377.715c-1.712 0-3.1 1.388-3.1 3.1s1.388 3.1 3.1 3.1 3.1-1.388 3.1-3.1-1.388-3.1-3.1-3.1z"/><path d="m499.831 397.7c-1.712 0-3.1 1.388-3.1 3.1s1.388 3.1 3.1 3.1 3.1-1.388 3.1-3.1-1.388-3.1-3.1-3.1z"/><path d="m499.831 417.685c-1.712 0-3.1 1.388-3.1 3.1 0 1.713 1.388 3.101 3.1 3.101s3.1-1.388 3.1-3.101c0-1.712-1.388-3.1-3.1-3.1z"/><path d="m499.831 437.67c-1.712 0-3.1 1.389-3.1 3.101s1.388 3.1 3.1 3.1 3.1-1.388 3.1-3.1-1.388-3.101-3.1-3.101z"/><path d="m479.845 97.919c-1.712 0-3.1 1.388-3.1 3.1s1.388 3.1 3.1 3.1 3.1-1.388 3.1-3.1-1.388-3.1-3.1-3.1z"/><path d="m490.214 107.535c-1.712 0-3.1 1.388-3.1 3.1s1.388 3.1 3.1 3.1 3.1-1.388 3.1-3.1-1.388-3.1-3.1-3.1z"/><circle cx="479.845" cy="121.004" r="3.1"/><path d="m490.214 127.521c-1.712 0-3.1 1.388-3.1 3.1s1.388 3.1 3.1 3.1 3.1-1.388 3.1-3.1c0-1.713-1.388-3.1-3.1-3.1z"/><path d="m479.845 137.889c-1.712 0-3.1 1.388-3.1 3.1 0 1.713 1.388 3.101 3.1 3.101s3.1-1.388 3.1-3.101c0-1.712-1.388-3.1-3.1-3.1z"/><path d="m490.214 147.506c-1.712 0-3.1 1.388-3.1 3.1 0 1.713 1.388 3.101 3.1 3.101s3.1-1.388 3.1-3.101c0-1.712-1.388-3.1-3.1-3.1z"/><path d="m479.845 157.874c-1.712 0-3.1 1.389-3.1 3.101s1.388 3.1 3.1 3.1 3.1-1.388 3.1-3.1-1.388-3.101-3.1-3.101z"/><path d="m490.214 167.492c-1.712 0-3.1 1.388-3.1 3.1s1.388 3.1 3.1 3.1 3.1-1.388 3.1-3.1-1.388-3.1-3.1-3.1z"/><path d="m479.845 177.861c-1.712 0-3.1 1.388-3.1 3.1s1.388 3.1 3.1 3.1 3.1-1.388 3.1-3.1c0-1.713-1.388-3.1-3.1-3.1z"/><path d="m490.214 187.477c-1.712 0-3.1 1.388-3.1 3.1s1.388 3.1 3.1 3.1 3.1-1.388 3.1-3.1-1.388-3.1-3.1-3.1z"/><path d="m479.845 197.846c-1.712 0-3.1 1.388-3.1 3.1s1.388 3.101 3.1 3.101 3.1-1.389 3.1-3.101-1.388-3.1-3.1-3.1z"/><path d="m490.214 207.462c-1.712 0-3.1 1.388-3.1 3.1 0 1.713 1.388 3.101 3.1 3.101s3.1-1.388 3.1-3.101c0-1.712-1.388-3.1-3.1-3.1z"/><path d="m479.845 217.831c-1.712 0-3.1 1.388-3.1 3.101 0 1.712 1.388 3.1 3.1 3.1s3.1-1.388 3.1-3.1c0-1.713-1.388-3.101-3.1-3.101z"/><path d="m490.214 227.447c-1.712 0-3.1 1.388-3.1 3.101 0 1.712 1.388 3.1 3.1 3.1s3.1-1.388 3.1-3.1c0-1.713-1.388-3.101-3.1-3.101z"/><circle cx="479.845" cy="240.917" r="3.1"/><path d="m490.214 247.433c-1.712 0-3.1 1.388-3.1 3.1s1.388 3.1 3.1 3.1 3.1-1.388 3.1-3.1-1.388-3.1-3.1-3.1z"/><path d="m479.845 257.802c-1.712 0-3.1 1.388-3.1 3.1s1.388 3.1 3.1 3.1 3.1-1.388 3.1-3.1-1.388-3.1-3.1-3.1z"/><path d="m490.214 267.418c-1.712 0-3.1 1.388-3.1 3.1s1.388 3.101 3.1 3.101 3.1-1.389 3.1-3.101-1.388-3.1-3.1-3.1z"/><path d="m479.845 277.787c-1.712 0-3.1 1.388-3.1 3.1 0 1.713 1.388 3.101 3.1 3.101s3.1-1.388 3.1-3.101c0-1.712-1.388-3.1-3.1-3.1z"/><path d="m490.214 287.404c-1.712 0-3.1 1.388-3.1 3.1 0 1.713 1.388 3.101 3.1 3.101s3.1-1.388 3.1-3.101-1.388-3.1-3.1-3.1z"/><path d="m479.845 297.772c-1.712 0-3.1 1.389-3.1 3.101s1.388 3.1 3.1 3.1 3.1-1.388 3.1-3.1-1.388-3.101-3.1-3.101z"/><path d="m490.214 307.39c-1.712 0-3.1 1.388-3.1 3.1s1.388 3.1 3.1 3.1 3.1-1.388 3.1-3.1-1.388-3.1-3.1-3.1z"/><circle cx="479.845" cy="320.858" r="3.1"/><path d="m490.214 327.375c-1.712 0-3.1 1.388-3.1 3.1s1.388 3.1 3.1 3.1 3.1-1.388 3.1-3.1-1.388-3.1-3.1-3.1z"/><path d="m479.845 337.744c-1.712 0-3.1 1.388-3.1 3.1s1.388 3.101 3.1 3.101 3.1-1.389 3.1-3.101c0-1.713-1.388-3.1-3.1-3.1z"/><path d="m490.214 347.36c-1.712 0-3.1 1.388-3.1 3.1 0 1.713 1.388 3.101 3.1 3.101s3.1-1.388 3.1-3.101c0-1.712-1.388-3.1-3.1-3.1z"/><path d="m479.845 357.729c-1.712 0-3.1 1.388-3.1 3.101 0 1.712 1.388 3.1 3.1 3.1s3.1-1.388 3.1-3.1c0-1.713-1.388-3.101-3.1-3.101z"/><path d="m490.214 367.345c-1.712 0-3.1 1.389-3.1 3.101s1.388 3.1 3.1 3.1 3.1-1.388 3.1-3.1-1.388-3.101-3.1-3.101z"/><circle cx="479.845" cy="380.815" r="3.1"/><path d="m490.214 387.331c-1.712 0-3.1 1.388-3.1 3.1s1.388 3.1 3.1 3.1 3.1-1.388 3.1-3.1-1.388-3.1-3.1-3.1z"/><circle cx="479.845" cy="400.8" r="3.1"/><path d="m490.214 407.316c-1.712 0-3.1 1.388-3.1 3.1s1.388 3.101 3.1 3.101 3.1-1.389 3.1-3.101-1.388-3.1-3.1-3.1z"/><path d="m479.845 417.685c-1.712 0-3.1 1.388-3.1 3.1 0 1.713 1.388 3.101 3.1 3.101s3.1-1.388 3.1-3.101c0-1.712-1.388-3.1-3.1-3.1z"/><path d="m490.214 427.302c-1.712 0-3.1 1.388-3.1 3.101 0 1.712 1.388 3.1 3.1 3.1s3.1-1.388 3.1-3.1c0-1.714-1.388-3.101-3.1-3.101z"/><path d="m479.845 437.67c-1.712 0-3.1 1.389-3.1 3.101s1.388 3.1 3.1 3.1 3.1-1.388 3.1-3.1-1.388-3.101-3.1-3.101z"/><path d="m490.214 447.288c-1.712 0-3.1 1.388-3.1 3.1s1.388 3.1 3.1 3.1 3.1-1.388 3.1-3.1c0-1.713-1.388-3.1-3.1-3.1z"/><circle cx="479.845" cy="460.756" r="3.1"/><path d="m479.845 477.642c-1.712 0-3.1 1.388-3.1 3.1s1.388 3.101 3.1 3.101 3.1-1.389 3.1-3.101c0-1.713-1.388-3.1-3.1-3.1z"/><path d="m470.229 87.549c-1.712 0-3.1 1.388-3.1 3.1 0 1.713 1.388 3.101 3.1 3.101s3.1-1.388 3.1-3.101c0-1.712-1.388-3.1-3.1-3.1z"/><path d="m470.229 107.535c-1.712 0-3.1 1.388-3.1 3.1s1.388 3.1 3.1 3.1 3.1-1.388 3.1-3.1-1.388-3.1-3.1-3.1z"/><circle cx="470.229" cy="130.62" r="3.1"/><path d="m470.229 147.506c-1.712 0-3.1 1.388-3.1 3.1 0 1.713 1.388 3.101 3.1 3.101s3.1-1.388 3.1-3.101c0-1.712-1.388-3.1-3.1-3.1z"/><circle cx="470.229" cy="170.592" r="3.1"/><path d="m470.229 187.477c-1.712 0-3.1 1.388-3.1 3.1s1.388 3.1 3.1 3.1 3.1-1.388 3.1-3.1-1.388-3.1-3.1-3.1z"/><path d="m470.229 207.462c-1.712 0-3.1 1.388-3.1 3.1 0 1.713 1.388 3.101 3.1 3.101s3.1-1.388 3.1-3.101c0-1.712-1.388-3.1-3.1-3.1z"/><path d="m470.229 227.447c-1.712 0-3.1 1.388-3.1 3.101 0 1.712 1.388 3.1 3.1 3.1s3.1-1.388 3.1-3.1c0-1.713-1.388-3.101-3.1-3.101z"/><circle cx="470.229" cy="250.533" r="3.1"/><path d="m470.229 267.418c-1.712 0-3.1 1.388-3.1 3.1s1.388 3.101 3.1 3.101 3.1-1.389 3.1-3.101-1.388-3.1-3.1-3.1z"/><path d="m470.229 287.404c-1.712 0-3.1 1.388-3.1 3.1 0 1.713 1.388 3.101 3.1 3.101s3.1-1.388 3.1-3.101-1.388-3.1-3.1-3.1z"/><circle cx="470.229" cy="310.49" r="3.1"/><circle cx="470.229" cy="330.475" r="3.1"/><path d="m470.229 347.36c-1.712 0-3.1 1.388-3.1 3.1 0 1.713 1.388 3.101 3.1 3.101s3.1-1.388 3.1-3.101c0-1.712-1.388-3.1-3.1-3.1z"/><path d="m470.229 367.345c-1.712 0-3.1 1.389-3.1 3.101s1.388 3.1 3.1 3.1 3.1-1.388 3.1-3.1-1.388-3.101-3.1-3.101z"/><circle cx="470.229" cy="390.431" r="3.1"/><path d="m470.229 407.316c-1.712 0-3.1 1.388-3.1 3.1s1.388 3.101 3.1 3.101 3.1-1.389 3.1-3.101-1.388-3.1-3.1-3.1z"/><path d="m459.86 417.685c-1.712 0-3.1 1.388-3.1 3.1 0 1.713 1.388 3.101 3.1 3.101s3.1-1.388 3.1-3.101c0-1.712-1.388-3.1-3.1-3.1z"/><path d="m470.229 427.302c-1.712 0-3.1 1.388-3.1 3.101 0 1.712 1.388 3.1 3.1 3.1s3.1-1.388 3.1-3.1c0-1.714-1.388-3.101-3.1-3.101z"/><path d="m459.86 437.67c-1.712 0-3.1 1.389-3.1 3.101s1.388 3.1 3.1 3.1 3.1-1.388 3.1-3.1-1.388-3.101-3.1-3.101z"/><path d="m470.229 447.288c-1.712 0-3.1 1.388-3.1 3.1s1.388 3.1 3.1 3.1 3.1-1.388 3.1-3.1c0-1.713-1.388-3.1-3.1-3.1z"/><path d="m459.86 457.656c-1.712 0-3.1 1.388-3.1 3.1s1.388 3.1 3.1 3.1 3.1-1.388 3.1-3.1-1.388-3.1-3.1-3.1z"/><circle cx="470.229" cy="470.372" r="3.1"/><path d="m459.86 477.642c-1.712 0-3.1 1.388-3.1 3.1s1.388 3.101 3.1 3.101 3.1-1.389 3.1-3.101c0-1.713-1.388-3.1-3.1-3.1z"/><path d="m450.244 447.288c-1.712 0-3.1 1.388-3.1 3.1s1.388 3.1 3.1 3.1 3.1-1.388 3.1-3.1c0-1.713-1.388-3.1-3.1-3.1z"/><path d="m439.875 457.656c-1.712 0-3.1 1.388-3.1 3.1s1.388 3.1 3.1 3.1 3.1-1.388 3.1-3.1-1.388-3.1-3.1-3.1z"/><circle cx="450.244" cy="470.372" r="3.1"/><path d="m439.875 477.642c-1.712 0-3.1 1.388-3.1 3.1s1.388 3.101 3.1 3.101 3.1-1.389 3.1-3.101c0-1.713-1.388-3.1-3.1-3.1z"/><path d="m450.244 487.258c-1.712 0-3.1 1.388-3.1 3.1 0 1.713 1.388 3.101 3.1 3.101s3.1-1.388 3.1-3.101c0-1.712-1.388-3.1-3.1-3.1z"/><path d="m439.875 497.627c-1.712 0-3.1 1.388-3.1 3.101 0 1.712 1.388 3.1 3.1 3.1s3.1-1.388 3.1-3.1c0-1.714-1.388-3.101-3.1-3.101z"/><circle cx="419.889" cy="460.756" r="3.1"/><path d="m430.258 467.273c-1.712 0-3.1 1.388-3.1 3.1s1.388 3.1 3.1 3.1 3.1-1.388 3.1-3.1-1.388-3.1-3.1-3.1z"/><path d="m419.889 477.642c-1.712 0-3.1 1.388-3.1 3.1s1.388 3.101 3.1 3.101 3.1-1.389 3.1-3.101c0-1.713-1.388-3.1-3.1-3.1z"/><path d="m430.258 487.258c-1.712 0-3.1 1.388-3.1 3.1 0 1.713 1.388 3.101 3.1 3.101s3.1-1.388 3.1-3.101c0-1.712-1.388-3.1-3.1-3.1z"/><path d="m419.889 497.627c-1.712 0-3.1 1.388-3.1 3.101 0 1.712 1.388 3.1 3.1 3.1s3.1-1.388 3.1-3.1c0-1.714-1.388-3.101-3.1-3.101z"/><path d="m410.273 467.273c-1.712 0-3.1 1.388-3.1 3.1s1.388 3.1 3.1 3.1 3.1-1.388 3.1-3.1-1.388-3.1-3.1-3.1z"/><path d="m399.904 477.642c-1.712 0-3.1 1.388-3.1 3.1s1.388 3.101 3.1 3.101 3.1-1.389 3.1-3.101c0-1.713-1.388-3.1-3.1-3.1z"/><path d="m410.273 487.258c-1.712 0-3.1 1.388-3.1 3.1 0 1.713 1.388 3.101 3.1 3.101s3.1-1.388 3.1-3.101c0-1.712-1.388-3.1-3.1-3.1z"/><path d="m399.904 497.627c-1.712 0-3.1 1.388-3.1 3.101 0 1.712 1.388 3.1 3.1 3.1s3.1-1.388 3.1-3.1c0-1.714-1.388-3.101-3.1-3.101z"/><path d="m390.287 467.273c-1.712 0-3.1 1.388-3.1 3.1s1.388 3.1 3.1 3.1 3.1-1.388 3.1-3.1-1.388-3.1-3.1-3.1z"/><path d="m379.918 477.642c-1.712 0-3.1 1.388-3.1 3.1s1.388 3.101 3.1 3.101 3.1-1.389 3.1-3.101c0-1.713-1.388-3.1-3.1-3.1z"/><path d="m390.287 487.258c-1.712 0-3.1 1.388-3.1 3.1 0 1.713 1.388 3.101 3.1 3.101s3.1-1.388 3.1-3.101c0-1.712-1.388-3.1-3.1-3.1z"/><path d="m379.918 497.627c-1.712 0-3.1 1.388-3.1 3.101 0 1.712 1.388 3.1 3.1 3.1s3.1-1.388 3.1-3.1c0-1.714-1.388-3.101-3.1-3.101z"/><path d="m370.302 467.273c-1.712 0-3.1 1.388-3.1 3.1s1.388 3.1 3.1 3.1 3.1-1.388 3.1-3.1-1.388-3.1-3.1-3.1z"/><path d="m359.933 477.642c-1.712 0-3.1 1.388-3.1 3.1s1.388 3.101 3.1 3.101 3.1-1.389 3.1-3.101c0-1.713-1.388-3.1-3.1-3.1z"/><path d="m370.302 487.258c-1.712 0-3.1 1.388-3.1 3.1 0 1.713 1.388 3.101 3.1 3.101s3.1-1.388 3.1-3.101c0-1.712-1.388-3.1-3.1-3.1z"/><path d="m359.933 497.627c-1.712 0-3.1 1.388-3.1 3.101 0 1.712 1.388 3.1 3.1 3.1s3.1-1.388 3.1-3.1c0-1.714-1.388-3.101-3.1-3.101z"/><circle cx="350.316" cy="470.372" r="3.1"/><path d="m339.948 477.642c-1.712 0-3.1 1.388-3.1 3.1s1.388 3.101 3.1 3.101 3.1-1.389 3.1-3.101c0-1.713-1.388-3.1-3.1-3.1z"/><path d="m350.316 487.258c-1.712 0-3.1 1.388-3.1 3.1 0 1.713 1.388 3.101 3.1 3.101s3.1-1.388 3.1-3.101c.001-1.712-1.388-3.1-3.1-3.1z"/><path d="m339.948 497.627c-1.712 0-3.1 1.388-3.1 3.101 0 1.712 1.388 3.1 3.1 3.1s3.1-1.388 3.1-3.1c0-1.714-1.388-3.101-3.1-3.101z"/><circle cx="330.331" cy="470.372" r="3.1"/><path d="m319.962 477.642c-1.712 0-3.1 1.388-3.1 3.1s1.388 3.101 3.1 3.101 3.1-1.389 3.1-3.101c0-1.713-1.388-3.1-3.1-3.1z"/><path d="m330.331 487.258c-1.712 0-3.1 1.388-3.1 3.1 0 1.713 1.388 3.101 3.1 3.101s3.1-1.388 3.1-3.101c0-1.712-1.388-3.1-3.1-3.1z"/><path d="m319.962 497.627c-1.712 0-3.1 1.388-3.1 3.101 0 1.712 1.388 3.1 3.1 3.1s3.1-1.388 3.1-3.1c0-1.714-1.388-3.101-3.1-3.101z"/><path d="m310.346 467.273c-1.712 0-3.1 1.388-3.1 3.1s1.388 3.1 3.1 3.1 3.1-1.388 3.1-3.1-1.388-3.1-3.1-3.1z"/><path d="m299.977 477.642c-1.712 0-3.1 1.388-3.1 3.1s1.388 3.101 3.1 3.101 3.1-1.389 3.1-3.101c0-1.713-1.388-3.1-3.1-3.1z"/><path d="m310.346 487.258c-1.712 0-3.1 1.388-3.1 3.1 0 1.713 1.388 3.101 3.1 3.101s3.1-1.388 3.1-3.101c0-1.712-1.388-3.1-3.1-3.1z"/><path d="m299.977 497.627c-1.712 0-3.1 1.388-3.1 3.101 0 1.712 1.388 3.1 3.1 3.1s3.1-1.388 3.1-3.1c0-1.714-1.388-3.101-3.1-3.101z"/><path d="m290.36 467.273c-1.712 0-3.1 1.388-3.1 3.1s1.388 3.1 3.1 3.1 3.1-1.388 3.1-3.1-1.388-3.1-3.1-3.1z"/><path d="m279.991 477.642c-1.712 0-3.1 1.388-3.1 3.1s1.388 3.101 3.1 3.101 3.1-1.389 3.1-3.101c0-1.713-1.388-3.1-3.1-3.1z"/><path d="m290.36 487.258c-1.712 0-3.1 1.388-3.1 3.1 0 1.713 1.388 3.101 3.1 3.101s3.1-1.388 3.1-3.101c0-1.712-1.388-3.1-3.1-3.1z"/><path d="m279.991 497.627c-1.712 0-3.1 1.388-3.1 3.101 0 1.712 1.388 3.1 3.1 3.1s3.1-1.388 3.1-3.1c0-1.714-1.388-3.101-3.1-3.101z"/><path d="m270.375 467.273c-1.712 0-3.1 1.388-3.1 3.1s1.388 3.1 3.1 3.1 3.1-1.388 3.1-3.1-1.388-3.1-3.1-3.1z"/><path d="m260.006 477.642c-1.712 0-3.1 1.388-3.1 3.1s1.388 3.101 3.1 3.101 3.1-1.389 3.1-3.101c0-1.713-1.388-3.1-3.1-3.1z"/><path d="m270.375 487.258c-1.712 0-3.1 1.388-3.1 3.1 0 1.713 1.388 3.101 3.1 3.101s3.1-1.388 3.1-3.101c0-1.712-1.388-3.1-3.1-3.1z"/><path d="m260.006 497.627c-1.712 0-3.1 1.388-3.1 3.101 0 1.712 1.388 3.1 3.1 3.1s3.1-1.388 3.1-3.1c0-1.714-1.388-3.101-3.1-3.101z"/><path d="m250.389 467.273c-1.712 0-3.1 1.388-3.1 3.1s1.388 3.1 3.1 3.1 3.1-1.388 3.1-3.1-1.388-3.1-3.1-3.1z"/><path d="m240.02 477.642c-1.712 0-3.1 1.388-3.1 3.1s1.388 3.101 3.1 3.101 3.1-1.389 3.1-3.101c0-1.713-1.387-3.1-3.1-3.1z"/><path d="m250.389 487.258c-1.712 0-3.1 1.388-3.1 3.1 0 1.713 1.388 3.101 3.1 3.101s3.1-1.388 3.1-3.101c0-1.712-1.388-3.1-3.1-3.1z"/><path d="m240.02 497.627c-1.712 0-3.1 1.388-3.1 3.101 0 1.712 1.388 3.1 3.1 3.1s3.1-1.388 3.1-3.1c0-1.714-1.387-3.101-3.1-3.101z"/><circle cx="230.404" cy="470.372" r="3.1"/><path d="m220.035 477.642c-1.712 0-3.1 1.388-3.1 3.1s1.388 3.101 3.1 3.101 3.1-1.389 3.1-3.101c0-1.713-1.388-3.1-3.1-3.1z"/><path d="m230.404 487.258c-1.712 0-3.1 1.388-3.1 3.1 0 1.713 1.388 3.101 3.1 3.101s3.1-1.388 3.1-3.101c0-1.712-1.388-3.1-3.1-3.1z"/><path d="m220.035 497.627c-1.712 0-3.1 1.388-3.1 3.101 0 1.712 1.388 3.1 3.1 3.1s3.1-1.388 3.1-3.1c0-1.714-1.388-3.101-3.1-3.101z"/><path d="m210.418 467.273c-1.712 0-3.1 1.388-3.1 3.1s1.388 3.1 3.1 3.1 3.1-1.388 3.1-3.1c.001-1.712-1.387-3.1-3.1-3.1z"/><path d="m200.05 477.642c-1.712 0-3.1 1.388-3.1 3.1s1.388 3.101 3.1 3.101 3.1-1.389 3.1-3.101c0-1.713-1.388-3.1-3.1-3.1z"/><path d="m210.418 487.258c-1.712 0-3.1 1.388-3.1 3.1 0 1.713 1.388 3.101 3.1 3.101s3.1-1.388 3.1-3.101c.001-1.712-1.387-3.1-3.1-3.1z"/><path d="m200.05 497.627c-1.712 0-3.1 1.388-3.1 3.101 0 1.712 1.388 3.1 3.1 3.1s3.1-1.388 3.1-3.1c0-1.714-1.388-3.101-3.1-3.101z"/><path d="m190.433 467.273c-1.712 0-3.1 1.388-3.1 3.1s1.388 3.1 3.1 3.1 3.1-1.388 3.1-3.1-1.388-3.1-3.1-3.1z"/><path d="m180.064 477.642c-1.712 0-3.1 1.388-3.1 3.1s1.388 3.101 3.1 3.101 3.1-1.389 3.1-3.101c0-1.713-1.388-3.1-3.1-3.1z"/><path d="m190.433 487.258c-1.712 0-3.1 1.388-3.1 3.1 0 1.713 1.388 3.101 3.1 3.101s3.1-1.388 3.1-3.101c0-1.712-1.388-3.1-3.1-3.1z"/><path d="m180.064 497.627c-1.712 0-3.1 1.388-3.1 3.101 0 1.712 1.388 3.1 3.1 3.1s3.1-1.388 3.1-3.1c0-1.714-1.388-3.101-3.1-3.101z"/><path d="m170.448 467.273c-1.712 0-3.1 1.388-3.1 3.1s1.388 3.1 3.1 3.1 3.1-1.388 3.1-3.1-1.388-3.1-3.1-3.1z"/><path d="m160.079 477.642c-1.712 0-3.1 1.388-3.1 3.1s1.388 3.101 3.1 3.101 3.1-1.389 3.1-3.101c0-1.713-1.388-3.1-3.1-3.1z"/><path d="m170.448 487.258c-1.712 0-3.1 1.388-3.1 3.1 0 1.713 1.388 3.101 3.1 3.101s3.1-1.388 3.1-3.101c0-1.712-1.388-3.1-3.1-3.1z"/><path d="m160.079 497.627c-1.712 0-3.1 1.388-3.1 3.101 0 1.712 1.388 3.1 3.1 3.1s3.1-1.388 3.1-3.1c0-1.714-1.388-3.101-3.1-3.101z"/><path d="m150.462 467.273c-1.712 0-3.1 1.388-3.1 3.1s1.388 3.1 3.1 3.1 3.1-1.388 3.1-3.1-1.388-3.1-3.1-3.1z"/><path d="m140.093 477.642c-1.712 0-3.1 1.388-3.1 3.1s1.388 3.101 3.1 3.101 3.1-1.389 3.1-3.101c0-1.713-1.387-3.1-3.1-3.1z"/><path d="m150.462 487.258c-1.712 0-3.1 1.388-3.1 3.1 0 1.713 1.388 3.101 3.1 3.101s3.1-1.388 3.1-3.101c0-1.712-1.388-3.1-3.1-3.1z"/><path d="m140.093 497.627c-1.712 0-3.1 1.388-3.1 3.101 0 1.712 1.388 3.1 3.1 3.1s3.1-1.388 3.1-3.1c0-1.714-1.387-3.101-3.1-3.101z"/><path d="m130.477 467.273c-1.712 0-3.1 1.388-3.1 3.1s1.388 3.1 3.1 3.1 3.1-1.388 3.1-3.1-1.388-3.1-3.1-3.1z"/><path d="m120.108 477.642c-1.712 0-3.1 1.388-3.1 3.1s1.388 3.101 3.1 3.101 3.1-1.389 3.1-3.101c0-1.713-1.388-3.1-3.1-3.1z"/><path d="m130.477 487.258c-1.712 0-3.1 1.388-3.1 3.1 0 1.713 1.388 3.101 3.1 3.101s3.1-1.388 3.1-3.101c0-1.712-1.388-3.1-3.1-3.1z"/><path d="m120.108 497.627c-1.712 0-3.1 1.388-3.1 3.101 0 1.712 1.388 3.1 3.1 3.1s3.1-1.388 3.1-3.1c0-1.714-1.388-3.101-3.1-3.101z"/><circle cx="110.491" cy="470.372" r="3.1"/><path d="m100.123 477.642c-1.712 0-3.1 1.388-3.1 3.1s1.388 3.101 3.1 3.101 3.1-1.389 3.1-3.101c0-1.713-1.388-3.1-3.1-3.1z"/><path d="m110.491 487.258c-1.712 0-3.1 1.388-3.1 3.1 0 1.713 1.388 3.101 3.1 3.101s3.1-1.388 3.1-3.101c.001-1.712-1.388-3.1-3.1-3.1z"/><path d="m90.506 467.273c-1.712 0-3.1 1.388-3.1 3.1s1.388 3.1 3.1 3.1 3.1-1.388 3.1-3.1-1.388-3.1-3.1-3.1z"/><path d="m80.137 483.842c1.712 0 3.1-1.389 3.1-3.101s-1.388-3.1-3.1-3.1-3.1 1.388-3.1 3.1c0 .118.022.23.035.345.79.917 1.602 1.815 2.437 2.691.202.042.413.065.628.065z"/><path d="m73.621 470.372c0-1.712-1.388-3.1-3.1-3.1-.907 0-1.715.396-2.282 1.017.94 1.74 1.962 3.429 3.037 5.08 1.345-.339 2.345-1.547 2.345-2.997z"/></g><g fill="#31373d"><path d="m130.929 417.57h-42.109c-13.05 0-23.667-10.617-23.667-23.667v-42.109c0-13.05 10.617-23.667 23.667-23.667h42.109c13.05 0 23.667 10.617 23.667 23.667v42.109c.001 13.05-10.617 23.667-23.667 23.667zm-42.109-81.398c-8.614 0-15.621 7.008-15.621 15.621v42.109c0 8.614 7.008 15.621 15.621 15.621h42.109c8.614 0 15.621-7.008 15.621-15.621v-42.109c0-8.614-7.007-15.621-15.621-15.621z"/><path d="m391.137 417.57h-42.109c-13.05 0-23.667-10.617-23.667-23.667v-42.109c0-13.05 10.617-23.667 23.667-23.667h42.109c13.05 0 23.667 10.617 23.667 23.667v42.109c0 13.05-10.617 23.667-23.667 23.667zm-42.109-81.398c-8.614 0-15.621 7.008-15.621 15.621v42.109c0 8.614 7.008 15.621 15.621 15.621h42.109c8.614 0 15.621-7.008 15.621-15.621v-42.109c0-8.614-7.008-15.621-15.621-15.621z"/><path d="m391.137 287.466h-42.109c-13.05 0-23.667-10.616-23.667-23.666v-42.11c0-13.05 10.617-23.667 23.667-23.667h42.109c13.05 0 23.667 10.617 23.667 23.667v42.109c0 13.05-10.617 23.667-23.667 23.667zm-42.109-81.398c-8.614 0-15.621 7.008-15.621 15.621v42.109c0 8.613 7.008 15.62 15.621 15.62h42.109c8.614 0 15.621-7.008 15.621-15.62v-42.108c0-8.614-7.008-15.621-15.621-15.621h-42.109z"/></g><path d="m351.479 50.743c0-25.803-22.1-46.721-49.362-46.721h-211.343c-46.384 0-83.985 35.588-83.985 79.49v106.322c0 25.803 22.101 46.721 49.362 46.721h72.44c9.75 0 17.654 7.904 17.654 17.654v23.115c0 14.569 12.478 26.379 27.871 26.379 15.393 0 27.871-11.81 27.871-26.379v-26.788c0-8.482 6.045-15.706 14.369-17.339 4.707-.923 9.343-2.031 13.898-3.316 11.251-3.171 22.408 5.303 22.408 16.992v109.589c0 14.569 12.478 26.379 27.871 26.379s27.871-11.81 27.871-26.379v-166.849c0-4.3 1.596-8.429 4.418-11.672 24.148-27.754 38.656-63.301 38.656-102.061v-25.137z" fill="#eaa895"/><path d="m484.04 83.828-35.94-39.735c-13.997-16.679-34.981-27.307-58.407-27.307h-47.946c-9.777-10.3-23.921-16.786-39.631-16.786h-211.342c-48.528 0-88.008 37.464-88.008 83.513v106.321c0 11.717 4.211 22.51 11.255 31.109v171.516c0 24.298 11.438 45.96 29.198 59.932l32.254 31.278c15.444 16.898 38.622 26.587 63.614 26.587h284.89c46.049 0 83.513-37.464 83.513-83.513v-284.89c0-21.77-8.327-42.375-23.45-58.025zm-473.228-.315c0-41.612 35.871-75.467 79.962-75.467h211.343c25 0 45.34 19.154 45.34 42.698v25.136c0 35.943-13.211 71.06-37.201 98.881-3.786 4.393-5.872 9.929-5.872 15.585v166.116c0 12.327-10.698 22.356-23.848 22.356s-23.848-10.029-23.848-22.356v-106.891c0-7.461-3.399-14.348-9.324-18.894-4.183-3.209-9.166-4.883-14.257-4.883-2.029 0-4.076.266-6.094.807-3.343.896-6.776 1.704-10.203 2.402-10.919 2.225-18.844 11.988-18.844 23.215v25.105c0 12.327-10.698 22.356-23.848 22.356s-23.848-10.029-23.848-22.356v-21.063c0-13.083-10.645-23.728-23.729-23.728h-70.39c-25.001 0-45.34-19.154-45.34-42.698v-106.321zm344.689-7.548h35.636c8.614 0 15.621 7.008 15.621 15.621v42.109c0 8.613-7.008 15.62-15.621 15.62h-42.109c-3.783 0-7.237-1.373-9.941-3.621 10.701-21.693 16.401-45.527 16.414-69.729zm-106.861 203.455h-29.716c-5.374 0-10.106-2.737-12.914-6.883v-20.318c0-7.419 5.217-13.867 12.404-15.332 3.586-.731 7.179-1.576 10.679-2.515 4.646-1.243 9.521-.266 13.371 2.688 3.924 3.012 6.175 7.572 6.175 12.511v29.849zm28.015 107.211v7.272c0 8.614-7.008 15.621-15.621 15.621h-42.109c-8.614 0-15.621-7.008-15.621-15.621v-42.109c0-8.614 7.007-15.621 15.621-15.621h29.716v20.29c-.001 15.51 12.251 28.336 28.014 30.168zm-145.725-107.211h-42.11c-8.614 0-15.621-7.008-15.621-15.62v-23.221h53.34c8.647 0 15.683 7.035 15.683 15.682v18.291c-2.844 2.991-6.848 4.868-11.292 4.868zm-108.863 113.039v-163.603c9.253 7.315 21.137 11.722 34.085 11.722h9.002v23.221c0 13.05 10.617 23.666 23.667 23.666h42.109c4.423 0 8.56-1.228 12.105-3.349 3.247 13.503 15.945 23.609 31.082 23.609 15.48 0 28.414-10.568 31.292-24.532 3.833 2.685 8.489 4.271 13.516 4.271h29.716v40.661h-29.716c-13.05 0-23.667 10.617-23.667 23.667v42.109c0 13.05 10.617 23.667 23.667 23.667h42.109c13.05 0 23.667-10.617 23.667-23.667v-7.307c15.624-1.953 27.728-14.717 27.728-30.134v-166.114c0-3.729 1.393-7.399 3.921-10.331 7.276-8.438 13.604-17.519 18.935-27.072 3.877 2.779 8.621 4.42 13.744 4.42h42.109c13.05 0 23.667-10.616 23.667-23.666v-42.111c0-13.05-10.617-23.667-23.667-23.667h-35.635v-17.175c0-9.461-2.746-18.321-7.509-25.911h41.7c20.668 0 39.204 9.254 51.721 23.821.059.076.103.157.168.229l.709.784c9.741 11.794 15.6 26.907 15.6 43.364v299.429c0 37.604-30.594 68.198-68.198 68.198h-299.43c-15.699 0-30.165-5.346-41.705-14.296l-.025-.023c-.207-.2-.431-.371-.666-.519-15.705-12.506-25.801-31.771-25.801-53.361zm477.378 34.285c0 41.613-33.854 75.467-75.467 75.467h-284.89c-22.779 0-43.828-8.767-57.751-24.052-.056-.062-.113-.122-.173-.179l-12.924-12.534c6.977 2.11 14.368 3.257 22.025 3.257h299.429c42.041 0 76.244-34.203 76.244-76.244v-299.429c0-7.019-.973-13.81-2.757-20.269l14.939 16.515c.031.033.062.066.093.099 13.691 14.147 21.232 32.785 21.232 52.478z" fill="#31373d"/></g></svg>