<?xml version="1.0" encoding="iso-8859-1"?>
<!-- Generator: Adobe Illustrator 19.0.0, SVG Export Plug-In . SVG Version: 6.00 Build 0)  -->
<svg version="1.1" id="Capa_1" xmlns="http://www.w3.org/2000/svg" xmlns:xlink="http://www.w3.org/1999/xlink" x="0px" y="0px"
	 viewBox="0 0 511.999 511.999" style="enable-background:new 0 0 511.999 511.999;" xml:space="preserve">
<g>
	<path style="fill:#F09D2D;" d="M57.232,432.92c-4.143-1.508-7.788-4.45-10.114-8.598c-11.361-20.256-13.321-44.391-5.378-66.214
		s24.957-39.052,46.681-47.268c11.311-4.277,20.171-13.249,24.307-24.613c4.136-11.363,3.116-23.931-2.799-34.478
		c-11.36-20.257-13.32-44.392-5.377-66.215s24.958-39.051,46.68-47.266c9.861-3.728,20.881,1.242,24.61,11.104
		c3.729,9.861-1.242,20.88-11.104,24.61c-11.311,4.277-20.17,13.248-24.306,24.612c-4.136,11.364-3.117,23.932,2.799,34.479
		c11.361,20.256,13.321,44.391,5.377,66.214c-7.943,21.823-24.957,39.052-46.681,47.268c-11.311,4.277-20.171,13.249-24.307,24.613
		c-4.136,11.363-3.116,23.931,2.799,34.478c5.158,9.197,1.884,20.832-7.313,25.989C68.06,434.466,62.274,434.756,57.232,432.92z"/>
	<path style="fill:#F09D2D;" d="M165.593,437.537c-5.044-1.835-9.289-5.776-11.335-11.189c-3.73-9.863,1.243-20.879,11.105-24.61
		c11.311-4.277,20.171-13.248,24.307-24.612c4.136-11.364,3.115-23.932-2.8-34.478c-11.361-20.257-13.32-44.391-5.376-66.215
		c7.943-21.823,24.957-39.051,46.68-47.267c11.311-4.277,20.171-13.249,24.307-24.613c4.136-11.363,3.115-23.932-2.8-34.478
		c-5.158-9.197-1.883-20.832,7.313-25.989c9.195-5.156,20.833-1.883,25.989,7.313c11.361,20.256,13.321,44.391,5.377,66.214
		c-7.943,21.825-24.958,39.053-46.682,47.268c-11.311,4.277-20.17,13.249-24.306,24.613c-4.136,11.363-3.116,23.93,2.8,34.477
		c11.361,20.257,13.32,44.392,5.377,66.216c-7.943,21.823-24.958,39.051-46.681,47.266
		C174.419,439.133,169.736,439.045,165.593,437.537z"/>
	<path style="fill:#F09D2D;" d="M249.548,502.918c-5.044-1.835-9.287-5.775-11.335-11.19c-3.729-9.861,1.242-20.88,11.104-24.61
		c11.311-4.277,20.171-13.249,24.307-24.612c4.136-11.364,3.115-23.933-2.8-34.479c-11.361-20.256-13.321-44.391-5.377-66.214
		c7.943-21.824,24.958-39.053,46.682-47.268c11.311-4.277,20.171-13.248,24.307-24.612c4.136-11.364,3.115-23.932-2.8-34.478
		c-5.157-9.197-1.884-20.832,7.313-25.99c9.195-5.156,20.831-1.885,25.989,7.313c11.361,20.256,13.321,44.389,5.377,66.214
		c-7.943,21.824-24.958,39.052-46.681,47.267c-11.311,4.278-20.171,13.249-24.307,24.613c-4.136,11.363-3.115,23.932,2.8,34.478
		c11.361,20.256,13.321,44.391,5.377,66.215c-7.943,21.823-24.958,39.052-46.681,47.267
		C258.375,504.513,253.692,504.425,249.548,502.918z"/>
</g>
<path style="opacity:0.15;enable-background:new    ;" d="M175.842,149.373c-3.729-9.862-14.749-14.832-24.61-11.105
	c-21.722,8.215-38.737,25.442-46.68,47.266c-2.349,6.454-3.825,13.109-4.454,19.807l38.358,13.961
	c-1.096-6.881-0.465-14.004,1.976-20.71c4.136-11.363,12.995-20.334,24.306-24.612C174.601,170.252,179.572,159.234,175.842,149.373
	z"/>
<path style="opacity:0.15;enable-background:new    ;" d="M282.982,151.397c-5.156-9.194-16.794-12.468-25.989-7.313
	c-9.195,5.157-12.469,16.793-7.313,25.989c5.915,10.547,6.936,23.115,2.8,34.478c-4.136,11.364-12.996,20.336-24.307,24.613
	c-8.802,3.329-16.83,8.138-23.794,14.131l47.051,17.125c17.031-9.213,30.218-24.371,36.93-42.81
	C296.302,195.788,294.343,171.654,282.982,151.397z"/>
<path style="opacity:0.15;enable-background:new    ;" d="M366.936,216.778c-5.159-9.197-16.794-12.468-25.989-7.313
	c-9.197,5.158-12.469,16.794-7.313,25.989c5.915,10.547,6.936,23.114,2.8,34.478c-2.44,6.705-6.535,12.567-11.799,17.133
	l38.359,13.962c3.822-5.535,6.97-11.583,9.319-18.035C380.257,261.168,378.297,237.034,366.936,216.778z"/>
<path style="fill:#F3C74F;" d="M412.095,293.044c28.637,10.424,59.396-9.122,62.09-39.478
	c8.821-99.423-49.529-196.262-147.769-232.019S121.23,22.469,64.079,104.3c-17.449,24.985-6.449,59.73,22.187,70.152
	L412.095,293.044z"/>
<g>
	<path style="fill:#E6595A;" d="M218.758,122.773c-0.901,0-1.816-0.154-2.712-0.48l-21.738-7.911
		c-4.117-1.499-6.24-6.052-4.741-10.169c1.498-4.117,6.045-6.241,10.169-4.741l21.738,7.911c4.117,1.499,6.24,6.052,4.741,10.169
		C225.041,120.771,221.998,122.773,218.758,122.773z"/>
	<path style="fill:#E6595A;" d="M370.664,178.062c-0.901,0-1.816-0.153-2.712-0.48l-21.738-7.911
		c-4.117-1.499-6.24-6.052-4.741-10.169c1.498-4.117,6.045-6.243,10.169-4.741l21.738,7.911c4.117,1.499,6.24,6.052,4.741,10.169
		C376.947,176.061,373.904,178.062,370.664,178.062z"/>
</g>
<path style="opacity:0.1;enable-background:new    ;" d="M457.966,147.734c-15.9,4.479-29.492,16.27-35.573,32.977
	c-10.039,27.579,4.181,58.074,31.761,68.113c6.658,2.423,13.485,3.42,20.153,3.169C477.252,215.926,471.371,180.244,457.966,147.734
	z"/>
<path style="opacity:0.1;enable-background:new    ;" d="M85.322,79.807c-0.362-0.131-0.727-0.242-1.09-0.365
	c-7.247,7.739-13.99,16.035-20.153,24.858c-17.449,24.985-6.449,59.73,22.187,70.153l5.923,2.156
	c11.149-5.953,20.23-15.877,24.894-28.689C127.121,120.341,112.901,89.846,85.322,79.807z"/>
<path style="opacity:0.1;enable-background:new    ;" d="M244.697,7.924c-33.54,0.674-66.225,8.858-95.758,23.484
	c6.02,8.388,14.537,15.118,24.971,18.917c27.579,10.039,58.074-4.181,68.113-31.761C243.303,15.049,244.184,11.486,244.697,7.924z"
	/>
<path d="M329.13,14.092c-99.397-36.18-211.065-0.951-271.554,85.666c-9.735,13.939-12.379,31.234-7.254,47.452
	c5.128,16.231,17.241,28.877,33.233,34.698l12.337,4.49c-7.281,23.034-4.754,48.058,7.12,69.232
	c4.783,8.529,5.61,18.692,2.264,27.884c-3.346,9.192-10.511,16.447-19.659,19.906c-23.885,9.033-42.594,27.977-51.329,51.974
	c-8.734,23.999-6.578,50.536,5.913,72.807c3.161,5.639,8.247,9.963,14.319,12.174c3.003,1.093,6.134,1.634,9.255,1.634
	c4.576,0,9.129-1.165,13.214-3.456c6.296-3.531,10.84-9.302,12.796-16.251c1.955-6.949,1.086-14.243-2.446-20.539
	c-4.782-8.53-5.608-18.692-2.263-27.883c3.345-9.192,10.511-16.447,19.659-19.906c23.885-9.033,42.594-27.977,51.328-51.975
	c8.735-23.998,6.581-50.535-5.913-72.809c-4.163-7.423-5.325-16.083-3.351-24.264l64.682,23.542
	c-17.188,10.248-30.487,26.135-37.444,45.248c-8.734,23.997-6.58,50.534,5.912,72.81c4.783,8.53,5.61,18.692,2.265,27.883
	c-3.345,9.191-10.51,16.446-19.659,19.905c-13.937,5.271-20.988,20.899-15.717,34.838c2.787,7.369,8.634,13.142,16.042,15.838
	c2.981,1.084,6.107,1.627,9.234,1.627c3.241,0,6.482-0.583,9.56-1.746c23.887-9.034,42.596-27.977,51.33-51.974
	c8.735-23.998,6.58-50.535-5.913-72.81c-4.784-8.529-5.608-18.692-2.264-27.881c3.346-9.192,10.511-16.449,19.657-19.906
	c11.769-4.45,22.509-11.456,31.35-20.408l51.653,18.8c-3.747,7.535-10.204,13.421-18.165,16.432
	c-23.886,9.033-42.595,27.977-51.331,51.975c-8.734,23.999-6.579,50.535,5.914,72.808c4.783,8.529,5.609,18.693,2.264,27.886
	c-3.344,9.19-10.509,16.445-19.658,19.904c-13.936,5.27-20.989,20.898-15.718,34.839c2.788,7.369,8.636,13.141,16.043,15.837
	c2.98,1.084,6.106,1.627,9.231,1.627c3.241,0,6.482-0.583,9.56-1.746c23.886-9.033,42.596-27.977,51.331-51.975
	c8.734-23.997,6.579-50.534-5.913-72.809c-4.783-8.529-5.609-18.693-2.265-27.884c3.345-9.191,10.509-16.446,19.658-19.905
	c22.707-8.587,40.716-26.139,49.943-48.463l31,11.284c6.101,2.22,12.406,3.317,18.671,3.317c10.158,0,20.207-2.885,29.089-8.534
	c14.35-9.131,23.443-24.08,24.945-41.014C491.423,149.034,428.525,50.27,329.13,14.092z M141.152,296.572
	c-7.153,19.652-22.472,35.164-42.03,42.561c-13.475,5.094-24.03,15.781-28.957,29.32c-4.927,13.538-3.713,28.508,3.333,41.072
	c1.459,2.599,1.817,5.612,1.01,8.48c-0.808,2.869-2.683,5.251-5.283,6.71c-2.838,1.59-6.219,1.866-9.28,0.75
	c-2.505-0.911-4.602-2.695-5.908-5.023c-10.229-18.237-11.994-39.969-4.842-59.62s22.473-35.163,42.031-42.559
	c13.474-5.094,24.029-15.781,28.957-29.32c4.927-13.54,3.712-28.51-3.334-41.072c-9.611-17.14-11.746-37.359-6.037-56.04
	l21.024,7.652c-3.513,12.552-1.955,26.01,4.474,37.47C146.541,255.191,148.305,276.921,141.152,296.572z M238.872,257.458
	c-13.474,5.094-24.028,15.781-28.956,29.321c-4.927,13.537-3.712,28.506,3.335,41.071c10.229,18.239,11.993,39.97,4.84,59.621
	c-7.152,19.651-22.471,35.162-42.032,42.558c-2.497,0.946-5.252,0.964-7.754,0.052c-3.062-1.115-5.478-3.499-6.628-6.54
	c-2.177-5.754,0.735-12.208,6.489-14.384c13.475-5.094,24.03-15.781,28.957-29.319s3.712-28.508-3.335-41.071
	c-10.229-18.241-11.993-39.972-4.84-59.622c7.152-19.65,22.472-35.162,42.03-42.559c0.436-0.165,0.879-0.356,1.32-0.539
	l26.723,9.726C252.995,250.724,246.177,254.696,238.872,257.458z M322.826,322.838c-13.474,5.095-24.029,15.782-28.956,29.319
	c-4.927,13.539-3.712,28.509,3.335,41.073c10.23,18.24,11.994,39.97,4.842,59.62c-7.153,19.652-22.473,35.163-42.033,42.561
	c-2.495,0.943-5.25,0.962-7.754,0.051c-3.061-1.114-5.477-3.499-6.628-6.54c-2.177-5.754,0.735-12.208,6.49-14.384
	c13.475-5.095,24.03-15.782,28.956-29.319c4.927-13.54,3.712-28.511-3.335-41.074c-10.229-18.238-11.994-39.968-4.842-59.619
	c7.153-19.652,22.473-35.163,42.033-42.561c12.29-4.648,22.135-13.956,27.513-25.828l21.024,7.652
	C355.839,301.771,341.207,315.888,322.826,322.838z M466.284,252.865c-1.063,11.986-7.5,22.567-17.657,29.029
	c-10.167,6.469-22.495,7.818-33.817,3.695L88.981,166.997c-11.323-4.121-19.9-13.075-23.531-24.568
	c-3.627-11.48-1.756-23.722,5.133-33.587c56.382-80.73,160.467-113.563,253.119-79.838
	C416.353,62.725,474.984,154.781,466.284,252.865z M373.121,129.561c-4.119-1.497-8.669,0.623-10.169,4.742l-1.298,3.564
	c-1.499,4.117,0.624,8.67,4.741,10.169c0.896,0.326,1.812,0.48,2.712,0.48c3.241,0,6.282-2,7.456-5.221l1.298-3.564
	C379.362,135.612,377.239,131.059,373.121,129.561z M221.215,74.27c-4.118-1.497-8.671,0.626-10.169,4.741l-1.298,3.565
	c-1.499,4.118,0.625,8.67,4.741,10.169c0.896,0.326,1.812,0.48,2.712,0.48c3.241,0,6.283-2.001,7.456-5.222l1.298-3.565
	C227.455,80.322,225.331,75.769,221.215,74.27z M319.357,120.321c-4.117-1.498-8.67,0.625-10.169,4.741
	c-0.515,1.416-1.551,2.546-2.916,3.183c-1.365,0.637-2.895,0.704-4.312,0.188c-2.923-1.063-4.434-4.305-3.371-7.227
	c0.327-0.897,0.48-1.814,0.48-2.715c-0.001-3.24-2.001-6.281-5.221-7.453c-4.119-1.497-8.671,0.625-10.169,4.741
	c-1.063,2.924-4.307,4.435-7.227,3.371c-2.923-1.063-4.434-4.305-3.371-7.228c1.499-4.118-0.624-8.67-4.741-10.169
	c-4.119-1.497-8.671,0.625-10.169,4.741c-1.964,5.399-1.709,11.238,0.718,16.446c2.428,5.206,6.738,9.155,12.137,11.121
	c4.828,1.756,9.885,1.669,14.396,0.102c2.526,4.248,6.405,7.469,11.111,9.183c2.401,0.874,4.888,1.307,7.369,1.307
	c3.098,0,6.186-0.678,9.077-2.026c5.206-2.428,9.155-6.738,11.121-12.136C325.598,126.372,323.475,121.82,319.357,120.321z"/>
<g>
</g>
<g>
</g>
<g>
</g>
<g>
</g>
<g>
</g>
<g>
</g>
<g>
</g>
<g>
</g>
<g>
</g>
<g>
</g>
<g>
</g>
<g>
</g>
<g>
</g>
<g>
</g>
<g>
</g>
</svg>
