<?xml version="1.0" encoding="iso-8859-1"?>
<!-- Generator: Adobe Illustrator 19.0.0, SVG Export Plug-In . SVG Version: 6.00 Build 0)  -->
<svg version="1.1" id="Capa_1" xmlns="http://www.w3.org/2000/svg" xmlns:xlink="http://www.w3.org/1999/xlink" x="0px" y="0px"
	 viewBox="0 0 512 512" style="enable-background:new 0 0 512 512;" xml:space="preserve">
<path style="fill:#E9D286;" d="M296.003,396.498v67.496c0,22.094-17.911,40.006-40.006,40.006s-40.006-17.912-40.006-40.006v-67.496
	H296.003z"/>
<rect x="215.989" y="396.496" style="opacity:0.1;enable-background:new    ;" width="80.012" height="21.614"/>
<path style="fill:#F0B0B7;" d="M397.418,149.419c0-78.27-63.586-141.688-141.919-141.417
	c-78.159,0.27-140.918,64.794-140.918,142.952v208.242c0,20.6,16.7,37.3,37.3,37.3h208.235c20.6,0,37.3-16.7,37.3-37.3V149.419
	H397.418z"/>
<path style="fill:#76C9D2;" d="M114.582,341.804v17.393c0,20.6,16.7,37.3,37.3,37.3h208.235c20.6,0,37.3-16.7,37.3-37.3v-17.394
	L114.582,341.804L114.582,341.804z"/>
<path style="opacity:0.1;enable-background:new    ;" d="M312.86,252.56c-13.257,0-24.004,10.747-24.004,24.004v119.935h48.007
	V276.564C336.863,263.306,326.116,252.56,312.86,252.56z"/>
<path style="opacity:0.1;enable-background:new    ;" d="M198.133,252.56c-13.257,0-24.004,10.747-24.004,24.004v119.935h48.007
	V276.564C222.137,263.306,211.391,252.56,198.133,252.56z"/>
<g>
	<path style="fill:#FFFFFF;" d="M188.671,175.33h-22.488c-4.42,0-8.001-3.582-8.001-8.001c0-4.419,3.581-8.001,8.001-8.001h22.488
		c4.42,0,8.001,3.582,8.001,8.001C196.672,171.748,193.09,175.33,188.671,175.33z"/>
	<path style="fill:#FFFFFF;" d="M345.816,175.33h-22.488c-4.419,0-8.001-3.582-8.001-8.001c0-4.419,3.582-8.001,8.001-8.001h22.488
		c4.42,0,8.001,3.582,8.001,8.001C353.817,171.748,350.236,175.33,345.816,175.33z"/>
</g>
<path d="M361.472,43.581C333.257,15.464,295.824,0,256.004,0c-0.175,0-0.356,0-0.532,0.001
	c-82.1,0.284-148.892,68.002-148.892,150.954v208.242c0,24.98,20.323,45.302,45.303,45.302h56.108v59.495
	c0,26.471,21.535,48.007,48.007,48.007c26.471,0,48.007-21.536,48.007-48.007v-59.495h56.114c24.98,0,45.303-20.322,45.303-45.302
	V149.421C405.419,109.411,389.812,71.824,361.472,43.581z M288.002,463.993c0,17.647-14.357,32.005-32.005,32.005
	s-32.005-14.357-32.005-32.005v-59.495h64.009V463.993z M389.417,359.197c0,16.156-13.143,29.299-29.3,29.299H151.882
	c-16.156,0-29.3-13.143-29.3-29.299v-9.391h266.835L389.417,359.197L389.417,359.197z M389.417,333.803H122.582V150.955
	c0-74.159,59.639-134.698,132.946-134.952c0.159,0,0.316,0,0.475,0c35.553,0,68.983,13.809,94.174,38.913
	c25.305,25.218,39.241,58.78,39.241,94.505V333.803z M334.573,129.168c-4.42,0-8.001,3.582-8.001,8.001v3.687
	c0,4.419,3.581,8.001,8.001,8.001s8.001-3.582,8.001-8.001v-3.687C342.574,132.75,338.993,129.168,334.573,129.168z
	 M177.426,129.168c-4.42,0-8.001,3.582-8.001,8.001v3.687c0,4.419,3.581,8.001,8.001,8.001s8.001-3.582,8.001-8.001v-3.687
	C185.427,132.75,181.846,129.168,177.426,129.168z M282.388,138.604c-4.42,0-8.001,3.582-8.001,8.001
	c0,2.863-2.33,5.193-5.192,5.193c-2.864,0-5.193-2.33-5.193-5.193c0-4.419-3.581-8.001-8.001-8.001s-8.001,3.582-8.001,8.001
	c0,2.863-2.33,5.193-5.193,5.193c-2.863,0-5.192-2.33-5.192-5.193c0-4.419-3.581-8.001-8.001-8.001s-8.001,3.582-8.001,8.001
	c0,11.687,9.508,21.196,21.195,21.196c4.984,0,9.572-1.729,13.194-4.619c3.623,2.89,8.21,4.619,13.194,4.619
	c11.687,0,21.195-9.509,21.195-21.196C290.389,142.186,286.807,138.604,282.388,138.604z"/>
<g>
</g>
<g>
</g>
<g>
</g>
<g>
</g>
<g>
</g>
<g>
</g>
<g>
</g>
<g>
</g>
<g>
</g>
<g>
</g>
<g>
</g>
<g>
</g>
<g>
</g>
<g>
</g>
<g>
</g>
</svg>
