<svg id="Capa_1" enable-background="new 0 0 509.842 509.842" height="512" viewBox="0 0 509.842 509.842" width="512" xmlns="http://www.w3.org/2000/svg"><g><path d="m195.35 205.349v-12.887h15.879v12.887h2.483c3.586 0 6.493 2.907 6.493 6.493v44.254h-33.831v-44.254c0-3.586 2.907-6.493 6.493-6.493z" fill="#eaa895"/><path d="m145.817 205.349v-12.887h15.879v12.887h2.483c3.586 0 6.493 2.907 6.493 6.493v44.254h-33.831v-44.254c0-3.586 2.907-6.493 6.493-6.493z" fill="#e9c278"/><g fill="#f9fbfc"><path d="m323.38 189.134h33.069v21.433h-33.069z" transform="matrix(-1 0 0 -1 679.828 399.702)"/><path d="m307.764 171.375h64.3v17.759h-64.3z" transform="matrix(-1 0 0 -1 679.828 360.509)"/><path d="m304.09 203.219h71.648v48.378h-71.648z" transform="matrix(-1 0 0 -1 679.828 454.816)"/></g><path d="m430.987 505.842h-352.133c-12.199 0-22.088-9.889-22.088-22.088v-201.919c0-12.199 9.889-22.088 22.088-22.088h352.133c12.199 0 22.088 9.889 22.088 22.088v201.919c0 12.199-9.889 22.088-22.088 22.088z" fill="#eaa895"/><g fill="#f9fbfc"><path d="m439.504 312.832c1.738 0 3.148-1.409 3.148-3.148 0-1.738-1.409-3.147-3.148-3.147s-3.148 1.409-3.148 3.147 1.41 3.148 3.148 3.148z"/><path d="m450.033 316.301c-1.738 0-3.148 1.409-3.148 3.147 0 1.739 1.409 3.148 3.148 3.148 1.472 0 2.698-1.015 3.042-2.38v-1.535c-.344-1.366-1.57-2.38-3.042-2.38z"/><path d="m439.504 333.125c1.738 0 3.148-1.409 3.148-3.147 0-1.739-1.409-3.148-3.148-3.148s-3.148 1.409-3.148 3.148c0 1.737 1.41 3.147 3.148 3.147z"/><path d="m450.033 336.594c-1.738 0-3.148 1.409-3.148 3.147 0 1.739 1.409 3.148 3.148 3.148 1.472 0 2.698-1.015 3.042-2.38v-1.535c-.344-1.366-1.57-2.38-3.042-2.38z"/><path d="m439.504 353.418c1.738 0 3.148-1.409 3.148-3.148s-1.409-3.148-3.148-3.148-3.148 1.409-3.148 3.148c0 1.738 1.41 3.148 3.148 3.148z"/><path d="m450.033 356.887c-1.738 0-3.148 1.409-3.148 3.148s1.409 3.148 3.148 3.148c1.472 0 2.698-1.015 3.042-2.38v-1.535c-.344-1.367-1.57-2.381-3.042-2.381z"/><path d="m439.504 373.711c1.738 0 3.148-1.409 3.148-3.148s-1.409-3.148-3.148-3.148-3.148 1.409-3.148 3.148c0 1.738 1.41 3.148 3.148 3.148z"/><path d="m450.033 377.18c-1.738 0-3.148 1.409-3.148 3.148s1.409 3.148 3.148 3.148c1.472 0 2.698-1.015 3.042-2.38v-1.536c-.344-1.366-1.57-2.38-3.042-2.38z"/><path d="m439.504 394.003c1.738 0 3.148-1.409 3.148-3.147 0-1.739-1.409-3.148-3.148-3.148s-3.148 1.409-3.148 3.148c0 1.738 1.41 3.147 3.148 3.147z"/><path d="m450.033 397.473c-1.738 0-3.148 1.409-3.148 3.147 0 1.739 1.409 3.148 3.148 3.148 1.472 0 2.698-1.015 3.042-2.38v-1.536c-.344-1.365-1.57-2.379-3.042-2.379z"/><path d="m439.504 414.296c1.738 0 3.148-1.409 3.148-3.147s-1.409-3.148-3.148-3.148-3.148 1.41-3.148 3.148 1.41 3.147 3.148 3.147z"/><path d="m450.033 417.766c-1.738 0-3.148 1.409-3.148 3.147 0 1.739 1.409 3.148 3.148 3.148 1.472 0 2.698-1.015 3.042-2.38v-1.536c-.344-1.364-1.57-2.379-3.042-2.379z"/><path d="m439.504 434.589c1.738 0 3.148-1.409 3.148-3.147s-1.409-3.148-3.148-3.148-3.148 1.41-3.148 3.148 1.41 3.147 3.148 3.147z"/><path d="m450.033 438.059c-1.738 0-3.148 1.409-3.148 3.147 0 1.739 1.409 3.148 3.148 3.148 1.472 0 2.698-1.015 3.042-2.38v-1.536c-.344-1.364-1.57-2.379-3.042-2.379z"/><path d="m439.504 454.883c1.738 0 3.148-1.41 3.148-3.148s-1.409-3.148-3.148-3.148-3.148 1.41-3.148 3.148 1.41 3.148 3.148 3.148z"/><path d="m450.033 458.352c-1.738 0-3.148 1.409-3.148 3.148 0 1.738 1.409 3.147 3.148 3.147 1.472 0 2.698-1.015 3.042-2.38v-1.536c-.344-1.364-1.57-2.379-3.042-2.379z"/><path d="m439.504 475.176c1.738 0 3.148-1.41 3.148-3.148s-1.409-3.147-3.148-3.147-3.148 1.409-3.148 3.147 1.41 3.148 3.148 3.148z"/><path d="m450.033 478.645c-1.738 0-3.148 1.409-3.148 3.148 0 1.738 1.409 3.147 3.148 3.147 1.472 0 2.698-1.015 3.042-2.38v-1.536c-.344-1.364-1.57-2.379-3.042-2.379z"/><path d="m439.504 495.469c1.738 0 3.148-1.409 3.148-3.148 0-1.738-1.409-3.147-3.148-3.147s-3.148 1.409-3.148 3.147c0 1.739 1.41 3.148 3.148 3.148z"/><path d="m419.211 306.536c-1.738 0-3.148 1.409-3.148 3.147 0 1.739 1.409 3.148 3.148 3.148s3.148-1.409 3.148-3.148c0-1.738-1.409-3.147-3.148-3.147z"/><path d="m429.74 316.301c-1.738 0-3.148 1.409-3.148 3.147 0 1.739 1.409 3.148 3.148 3.148 1.738 0 3.148-1.409 3.148-3.148-.001-1.738-1.41-3.147-3.148-3.147z"/><path d="m419.211 326.829c-1.738 0-3.148 1.409-3.148 3.148 0 1.738 1.409 3.147 3.148 3.147s3.148-1.409 3.148-3.147c0-1.739-1.409-3.148-3.148-3.148z"/><path d="m429.74 336.594c-1.738 0-3.148 1.409-3.148 3.147 0 1.739 1.409 3.148 3.148 3.148 1.738 0 3.148-1.409 3.148-3.148-.001-1.738-1.41-3.147-3.148-3.147z"/><path d="m419.211 347.122c-1.738 0-3.148 1.409-3.148 3.148 0 1.738 1.409 3.148 3.148 3.148s3.148-1.409 3.148-3.148-1.409-3.148-3.148-3.148z"/><path d="m429.74 356.887c-1.738 0-3.148 1.409-3.148 3.148s1.409 3.148 3.148 3.148c1.738 0 3.148-1.409 3.148-3.148-.001-1.739-1.41-3.148-3.148-3.148z"/><path d="m419.211 367.415c-1.738 0-3.148 1.409-3.148 3.148 0 1.738 1.409 3.148 3.148 3.148s3.148-1.409 3.148-3.148-1.409-3.148-3.148-3.148z"/><path d="m429.74 377.18c-1.738 0-3.148 1.409-3.148 3.148s1.409 3.148 3.148 3.148c1.738 0 3.148-1.409 3.148-3.148-.001-1.739-1.41-3.148-3.148-3.148z"/><path d="m419.211 387.708c-1.738 0-3.148 1.409-3.148 3.148 0 1.738 1.409 3.147 3.148 3.147s3.148-1.409 3.148-3.147c0-1.739-1.409-3.148-3.148-3.148z"/><path d="m429.74 397.473c-1.738 0-3.148 1.409-3.148 3.147 0 1.739 1.409 3.148 3.148 3.148 1.738 0 3.148-1.409 3.148-3.148-.001-1.738-1.41-3.147-3.148-3.147z"/><path d="m419.211 408.001c-1.738 0-3.148 1.41-3.148 3.148s1.409 3.147 3.148 3.147 3.148-1.409 3.148-3.147-1.409-3.148-3.148-3.148z"/><path d="m429.74 417.766c-1.738 0-3.148 1.409-3.148 3.147 0 1.739 1.409 3.148 3.148 3.148 1.738 0 3.148-1.409 3.148-3.148-.001-1.738-1.41-3.147-3.148-3.147z"/><path d="m419.211 428.294c-1.738 0-3.148 1.41-3.148 3.148s1.409 3.147 3.148 3.147 3.148-1.409 3.148-3.147-1.409-3.148-3.148-3.148z"/><path d="m429.74 438.059c-1.738 0-3.148 1.409-3.148 3.147 0 1.739 1.409 3.148 3.148 3.148 1.738 0 3.148-1.409 3.148-3.148-.001-1.738-1.41-3.147-3.148-3.147z"/><path d="m419.211 448.587c-1.738 0-3.148 1.41-3.148 3.148s1.409 3.148 3.148 3.148 3.148-1.41 3.148-3.148-1.409-3.148-3.148-3.148z"/><path d="m429.74 458.352c-1.738 0-3.148 1.409-3.148 3.148 0 1.738 1.409 3.147 3.148 3.147 1.738 0 3.148-1.409 3.148-3.147-.001-1.739-1.41-3.148-3.148-3.148z"/><path d="m419.211 468.88c-1.738 0-3.148 1.409-3.148 3.147s1.409 3.148 3.148 3.148 3.148-1.41 3.148-3.148c0-1.737-1.409-3.147-3.148-3.147z"/><path d="m429.74 478.645c-1.738 0-3.148 1.409-3.148 3.148 0 1.738 1.409 3.147 3.148 3.147 1.738 0 3.148-1.409 3.148-3.147-.001-1.739-1.41-3.148-3.148-3.148z"/><path d="m419.211 489.173c-1.738 0-3.148 1.409-3.148 3.147 0 1.739 1.409 3.148 3.148 3.148s3.148-1.409 3.148-3.148c0-1.738-1.409-3.147-3.148-3.147z"/><path d="m432.887 502.086c0-1.739-1.409-3.148-3.148-3.148-1.738 0-3.148 1.409-3.148 3.148 0 1.738 1.409 3.147 3.148 3.147s3.148-1.409 3.148-3.147z"/><path d="m398.918 306.536c-1.738 0-3.148 1.409-3.148 3.147 0 1.739 1.409 3.148 3.148 3.148s3.148-1.409 3.148-3.148c0-1.738-1.409-3.147-3.148-3.147z"/><path d="m409.447 316.301c-1.738 0-3.148 1.409-3.148 3.147 0 1.739 1.409 3.148 3.148 3.148s3.148-1.409 3.148-3.148c-.001-1.738-1.41-3.147-3.148-3.147z"/><path d="m398.918 326.829c-1.738 0-3.148 1.409-3.148 3.148 0 1.738 1.409 3.147 3.148 3.147s3.148-1.409 3.148-3.147c0-1.739-1.409-3.148-3.148-3.148z"/><path d="m409.447 336.594c-1.738 0-3.148 1.409-3.148 3.147 0 1.739 1.409 3.148 3.148 3.148s3.148-1.409 3.148-3.148c-.001-1.738-1.41-3.147-3.148-3.147z"/><path d="m398.918 347.122c-1.738 0-3.148 1.409-3.148 3.148 0 1.738 1.409 3.148 3.148 3.148s3.148-1.409 3.148-3.148-1.409-3.148-3.148-3.148z"/><path d="m409.447 356.887c-1.738 0-3.148 1.409-3.148 3.148s1.409 3.148 3.148 3.148 3.148-1.409 3.148-3.148c-.001-1.739-1.41-3.148-3.148-3.148z"/><path d="m398.918 367.415c-1.738 0-3.148 1.409-3.148 3.148 0 1.738 1.409 3.148 3.148 3.148s3.148-1.409 3.148-3.148-1.409-3.148-3.148-3.148z"/><path d="m409.447 377.18c-1.738 0-3.148 1.409-3.148 3.148s1.409 3.148 3.148 3.148 3.148-1.409 3.148-3.148c-.001-1.739-1.41-3.148-3.148-3.148z"/><path d="m398.918 387.708c-1.738 0-3.148 1.409-3.148 3.148 0 1.738 1.409 3.147 3.148 3.147s3.148-1.409 3.148-3.147c0-1.739-1.409-3.148-3.148-3.148z"/><path d="m409.447 397.473c-1.738 0-3.148 1.409-3.148 3.147 0 1.739 1.409 3.148 3.148 3.148s3.148-1.409 3.148-3.148c-.001-1.738-1.41-3.147-3.148-3.147z"/><path d="m398.918 408.001c-1.738 0-3.148 1.41-3.148 3.148s1.409 3.147 3.148 3.147 3.148-1.409 3.148-3.147-1.409-3.148-3.148-3.148z"/><path d="m409.447 417.766c-1.738 0-3.148 1.409-3.148 3.147 0 1.739 1.409 3.148 3.148 3.148s3.148-1.409 3.148-3.148c-.001-1.738-1.41-3.147-3.148-3.147z"/><path d="m398.918 428.294c-1.738 0-3.148 1.41-3.148 3.148s1.409 3.147 3.148 3.147 3.148-1.409 3.148-3.147-1.409-3.148-3.148-3.148z"/><path d="m409.447 438.059c-1.738 0-3.148 1.409-3.148 3.147 0 1.739 1.409 3.148 3.148 3.148s3.148-1.409 3.148-3.148c-.001-1.738-1.41-3.147-3.148-3.147z"/><path d="m398.918 448.587c-1.738 0-3.148 1.41-3.148 3.148s1.409 3.148 3.148 3.148 3.148-1.41 3.148-3.148-1.409-3.148-3.148-3.148z"/><path d="m409.447 458.352c-1.738 0-3.148 1.409-3.148 3.148 0 1.738 1.409 3.147 3.148 3.147s3.148-1.409 3.148-3.147c-.001-1.739-1.41-3.148-3.148-3.148z"/><path d="m398.918 468.88c-1.738 0-3.148 1.409-3.148 3.147s1.409 3.148 3.148 3.148 3.148-1.41 3.148-3.148c0-1.737-1.409-3.147-3.148-3.147z"/><path d="m409.447 478.645c-1.738 0-3.148 1.409-3.148 3.148 0 1.738 1.409 3.147 3.148 3.147s3.148-1.409 3.148-3.147c-.001-1.739-1.41-3.148-3.148-3.148z"/><path d="m398.918 489.173c-1.738 0-3.148 1.409-3.148 3.147 0 1.739 1.409 3.148 3.148 3.148s3.148-1.409 3.148-3.148c0-1.738-1.409-3.147-3.148-3.147z"/><path d="m409.447 498.938c-1.738 0-3.148 1.409-3.148 3.148 0 1.738 1.409 3.147 3.148 3.147s3.148-1.409 3.148-3.147c-.001-1.739-1.41-3.148-3.148-3.148z"/><path d="m389.154 316.301c-1.739 0-3.148 1.409-3.148 3.147 0 1.739 1.409 3.148 3.148 3.148 1.738 0 3.148-1.409 3.148-3.148-.001-1.738-1.41-3.147-3.148-3.147z"/><path d="m389.154 336.594c-1.739 0-3.148 1.409-3.148 3.147 0 1.739 1.409 3.148 3.148 3.148 1.738 0 3.148-1.409 3.148-3.148-.001-1.738-1.41-3.147-3.148-3.147z"/><path d="m389.154 356.887c-1.739 0-3.148 1.409-3.148 3.148s1.409 3.148 3.148 3.148c1.738 0 3.148-1.409 3.148-3.148-.001-1.739-1.41-3.148-3.148-3.148z"/><path d="m389.154 377.18c-1.739 0-3.148 1.409-3.148 3.148s1.409 3.148 3.148 3.148c1.738 0 3.148-1.409 3.148-3.148-.001-1.739-1.41-3.148-3.148-3.148z"/><path d="m389.154 397.473c-1.739 0-3.148 1.409-3.148 3.147 0 1.739 1.409 3.148 3.148 3.148 1.738 0 3.148-1.409 3.148-3.148-.001-1.738-1.41-3.147-3.148-3.147z"/><path d="m389.154 417.766c-1.739 0-3.148 1.409-3.148 3.147 0 1.739 1.409 3.148 3.148 3.148 1.738 0 3.148-1.409 3.148-3.148-.001-1.738-1.41-3.147-3.148-3.147z"/><path d="m389.154 438.059c-1.739 0-3.148 1.409-3.148 3.147 0 1.739 1.409 3.148 3.148 3.148 1.738 0 3.148-1.409 3.148-3.148-.001-1.738-1.41-3.147-3.148-3.147z"/><path d="m389.154 458.352c-1.739 0-3.148 1.409-3.148 3.148 0 1.738 1.409 3.147 3.148 3.147 1.738 0 3.148-1.409 3.148-3.147-.001-1.739-1.41-3.148-3.148-3.148z"/><path d="m389.154 478.645c-1.739 0-3.148 1.409-3.148 3.148 0 1.738 1.409 3.147 3.148 3.147 1.738 0 3.148-1.409 3.148-3.147-.001-1.739-1.41-3.148-3.148-3.148z"/><path d="m389.154 498.938c-1.739 0-3.148 1.409-3.148 3.148 0 1.738 1.409 3.147 3.148 3.147 1.738 0 3.148-1.409 3.148-3.147-.001-1.739-1.41-3.148-3.148-3.148z"/></g><path d="m453.159 306.286h-396.477c-14.316 0-25.921-11.605-25.921-25.921 0-14.316 11.605-25.921 25.921-25.921h396.477c14.316 0 25.921 11.605 25.921 25.921 0 14.316-11.605 25.921-25.921 25.921z" fill="#f9fbfc"/><g fill="#eaa895"><path d="m476.942 289.391c0 .325.063.632.155.927.468-1.124.861-2.287 1.169-3.484-.799.57-1.324 1.5-1.324 2.557z"/><path d="m467.178 258.569c0 1.738 1.41 3.147 3.148 3.147.252 0 .494-.037.729-.093-1.191-1.136-2.488-2.159-3.877-3.054z"/><path d="m459.797 265.95c-1.738 0-3.148 1.409-3.148 3.147 0 1.739 1.409 3.148 3.148 3.148 1.738 0 3.148-1.409 3.148-3.148 0-1.738-1.41-3.147-3.148-3.147z"/><path d="m467.178 278.862c0 1.738 1.41 3.148 3.148 3.148 1.739 0 3.148-1.41 3.148-3.148s-1.409-3.147-3.148-3.147-3.148 1.409-3.148 3.147z"/><path d="m459.797 286.243c-1.738 0-3.148 1.409-3.148 3.147 0 1.739 1.409 3.148 3.148 3.148 1.738 0 3.148-1.409 3.148-3.148 0-1.738-1.41-3.147-3.148-3.147z"/><path d="m472.817 297.251c-.575-.751-1.472-1.243-2.491-1.243-1.738 0-3.148 1.409-3.148 3.147 0 .918.4 1.736 1.026 2.311 1.703-1.215 3.251-2.631 4.613-4.215z"/><path d="m450.033 255.422c-1.738 0-3.148 1.409-3.148 3.147s1.409 3.147 3.148 3.147c1.738 0 3.148-1.409 3.148-3.147-.001-1.738-1.41-3.147-3.148-3.147z"/><path d="m439.504 265.95c-1.738 0-3.148 1.409-3.148 3.147 0 1.739 1.409 3.148 3.148 3.148s3.148-1.409 3.148-3.148c0-1.738-1.41-3.147-3.148-3.147z"/><path d="m450.033 275.715c-1.738 0-3.148 1.409-3.148 3.147s1.409 3.148 3.148 3.148c1.738 0 3.148-1.41 3.148-3.148-.001-1.738-1.41-3.147-3.148-3.147z"/><path d="m439.504 286.243c-1.738 0-3.148 1.409-3.148 3.147 0 1.739 1.409 3.148 3.148 3.148s3.148-1.409 3.148-3.148c0-1.738-1.41-3.147-3.148-3.147z"/><path d="m450.033 296.008c-1.738 0-3.148 1.409-3.148 3.147s1.409 3.148 3.148 3.148c1.738 0 3.148-1.41 3.148-3.148-.001-1.738-1.41-3.147-3.148-3.147z"/><path d="m429.74 255.422c-1.738 0-3.148 1.409-3.148 3.147s1.409 3.147 3.148 3.147c1.738 0 3.148-1.409 3.148-3.147-.001-1.738-1.41-3.147-3.148-3.147z"/><path d="m419.211 265.95c-1.738 0-3.148 1.409-3.148 3.147 0 1.739 1.409 3.148 3.148 3.148s3.148-1.409 3.148-3.148c0-1.738-1.409-3.147-3.148-3.147z"/><path d="m429.74 275.715c-1.738 0-3.148 1.409-3.148 3.147s1.409 3.148 3.148 3.148c1.738 0 3.148-1.41 3.148-3.148-.001-1.738-1.41-3.147-3.148-3.147z"/><path d="m419.211 286.243c-1.738 0-3.148 1.409-3.148 3.147 0 1.739 1.409 3.148 3.148 3.148s3.148-1.409 3.148-3.148c0-1.738-1.409-3.147-3.148-3.147z"/><path d="m429.74 296.008c-1.738 0-3.148 1.409-3.148 3.147s1.409 3.148 3.148 3.148c1.738 0 3.148-1.41 3.148-3.148-.001-1.738-1.41-3.147-3.148-3.147z"/><path d="m409.447 255.422c-1.738 0-3.148 1.409-3.148 3.147s1.409 3.147 3.148 3.147 3.148-1.409 3.148-3.147c-.001-1.738-1.41-3.147-3.148-3.147z"/><path d="m409.447 302.303c1.738 0 3.148-1.41 3.148-3.148s-1.409-3.147-3.148-3.147-3.148 1.409-3.148 3.147c0 1.739 1.409 3.148 3.148 3.148z"/></g><path d="m125.986 93.125c0 23.674-19.192 42.866-42.866 42.866s-42.866-19.192-42.866-42.866" fill="#eaa895"/><path d="m212.391 93.125c0 23.674-19.192 42.866-42.866 42.866s-42.866-19.192-42.866-42.866" fill="#f9fbfc"/><path d="m298.124 93.125c0 23.674-19.192 42.866-42.866 42.866s-42.866-19.192-42.866-42.866" fill="#eaa895"/><path d="m383.856 93.125c0 23.674-19.192 42.866-42.866 42.866s-42.866-19.192-42.866-42.866" fill="#f9fbfc"/><path d="m469.588 93.125c0 23.674-19.192 42.866-42.866 42.866s-42.866-19.192-42.866-42.866" fill="#eaa895"/><path d="m127.106 4-3.34 89.08h89.501v-89.08z" fill="#f9fbfc"/><path d="m213.267 4v89.08h86.491l-.655-89.08z" fill="#eaa895"/><path d="m447.118 4h-65.253l4.91 89.079h82.813l-8.826-76.912c-.796-6.932-6.665-12.167-13.644-12.167z" fill="#eaa895"/><path d="m299.103 4 .655 89.08h87.017l-4.91-89.08z" fill="#f9fbfc"/><path d="m48.365 16.957-8.111 76.123h83.512l3.34-89.08h-64.33c-7.409 0-13.626 5.589-14.411 12.957z" fill="#eaa895"/><path d="m453.159 250.945h-26.498v-110.955c.02 0 .04.001.061.001 25.842 0 46.866-21.024 46.866-46.866 0-.081-.019-.155-.024-.235-.004-.089.008-.177-.002-.266l-8.679-75.628c-1.111-9.689-9.304-16.996-19.057-16.996h-382.429c-9.832 0-18.032 7.373-19.075 17.15l-8.045 75.506c-.009.083.003.165 0 .248-.004.074-.022.145-.022.221 0 25.842 21.024 46.866 46.866 46.866.02 0 .04-.001.061-.001v110.955h-26.5c-16.223 0-29.42 13.198-29.42 29.421 0 14.895 11.128 27.23 25.505 29.151v174.236c0 14.385 11.703 26.088 26.088 26.088h352.132c14.385 0 26.088-11.703 26.088-26.088v-174.235c14.377-1.921 25.505-14.257 25.505-29.151 0-16.223-13.198-29.422-29.421-29.422zm-26.437-118.954c-20.096 0-36.678-15.331-38.666-34.911h77.332c-1.988 19.58-18.571 34.911-38.666 34.911zm-99.342 61.143h25.068v6.085h-25.068zm-15.616-8v-9.759h56.3v9.759zm59.974 22.085v40.378h-63.648v-40.378zm4-8h-15.29v-6.085h11.616c2.209 0 4-1.791 4-4v-17.759c0-2.209-1.791-4-4-4h-64.3c-2.209 0-4 1.791-4 4v17.759c0 2.209 1.791 4 4 4h11.616v6.085h-15.29c-2.209 0-4 1.791-4 4v47.727h-75.884v-39.104c0-5.271-3.906-9.646-8.976-10.384v-8.996c0-2.209-1.791-4-4-4h-15.879c-2.209 0-4 1.791-4 4v8.996c-5.07.737-8.976 5.112-8.976 10.384v39.104h-7.702v-39.104c0-5.271-3.907-9.646-8.977-10.384v-8.996c0-2.209-1.791-4-4-4h-15.879c-2.209 0-4 1.791-4 4v8.996c-5.07.737-8.976 5.112-8.976 10.384v39.104h-19.221v-122.273c5.474-4.704 9.857-10.644 12.703-17.388 7.109 16.849 23.797 28.706 43.203 28.706 19.114 0 35.582-11.508 42.866-27.954 7.285 16.446 23.752 27.954 42.866 27.954s35.582-11.508 42.866-27.954c7.285 16.446 23.752 27.954 42.866 27.954s35.581-11.508 42.866-27.954c2.847 6.429 7.103 12.097 12.366 16.625v122.284h-16.483v-47.727c-.001-2.209-1.792-4-4.001-4zm-164.508 10.13h2.483c1.374 0 2.493 1.118 2.493 2.493v39.104h-25.831v-39.104c0-1.375 1.118-2.493 2.493-2.493h2.483c2.209 0 4-1.791 4-4v-8.887h7.879v8.887c0 2.209 1.791 4 4 4zm-49.534 0h2.483c1.374 0 2.493 1.118 2.493 2.493v39.104h-25.832v-39.104c0-1.375 1.118-2.493 2.493-2.493h2.483c2.209 0 4-1.791 4-4v-8.887h7.879v8.887c.001 2.209 1.792 4 4.001 4zm-30.837-112.269h77.332c-1.988 19.58-18.57 34.911-38.666 34.911s-36.678-15.331-38.666-34.911zm85.733 0h77.332c-1.988 19.58-18.571 34.911-38.666 34.911-20.096 0-36.678-15.331-38.666-34.911zm85.732 0h77.332c-1.988 19.58-18.57 34.911-38.666 34.911s-36.678-15.331-38.666-34.911zm-250.047-79.082c.607-5.7 5.388-9.998 11.12-9.998h382.429c5.685 0 10.461 4.26 11.109 9.908l8.167 71.172h-420.4zm30.843 113.993c-20.096 0-36.678-15.331-38.666-34.911h77.332c-1.988 19.58-18.571 34.911-38.666 34.911zm365.955 351.763c0 9.974-8.114 18.088-18.088 18.088h-352.132c-9.974 0-18.088-8.114-18.088-18.088v-173.968h388.309v173.968zm4.084-180.968h-396.477c-12.363 0-22.42-10.058-22.42-22.42 0-12.363 10.058-22.421 22.42-22.421h396.477c12.363 0 22.421 10.058 22.421 22.421 0 12.362-10.058 22.42-22.421 22.42z" fill="#31373d"/><path d="m192.035 482.322 132.906-47.322c5.404-1.924 8.262-7.791 6.524-13.258-13.616-42.827-43.982-73.661-92.212-91.683-5.517-2.061-11.654.846-13.629 6.394l-47.119 132.337c-2.996 8.411 5.12 16.526 13.53 13.532z" fill="#e9c278"/><path d="m188.431 486.952c-3.786 0-7.465-1.488-10.268-4.291-4.023-4.023-5.337-9.853-3.428-15.212l47.119-132.338c1.325-3.721 4.027-6.688 7.608-8.354 3.555-1.654 7.529-1.813 11.189-.444 48.697 18.196 80.533 49.896 94.624 94.218 2.408 7.574-1.543 15.585-8.994 18.238l-132.906 47.322c-1.624.579-3.294.861-4.944.861zm3.604-4.63h.01zm43.555-148.926c-.936 0-1.871.205-2.751.614-1.623.756-2.847 2.1-3.447 3.785l-47.119 132.338c-.875 2.458-.296 5.026 1.549 6.872 1.845 1.845 4.415 2.424 6.873 1.549l132.906-47.322c3.368-1.198 5.148-4.835 4.054-8.277-13.309-41.862-43.522-71.855-89.8-89.147-.738-.276-1.502-.412-2.265-.412z" fill="#31373d"/><ellipse cx="251.127" cy="382.59" fill="#eaa895" rx="18.231" ry="18.231" transform="matrix(.922 -.387 .387 .922 -128.487 126.987)"/><path d="m251.127 404.821c-12.258 0-22.231-9.973-22.231-22.231s9.973-22.23 22.231-22.23 22.231 9.973 22.231 22.23c0 12.259-9.973 22.231-22.231 22.231zm0-36.462c-7.847 0-14.231 6.384-14.231 14.23 0 7.848 6.384 14.231 14.231 14.231s14.231-6.384 14.231-14.231c0-7.846-6.384-14.23-14.231-14.23z" fill="#31373d"/><path d="m243.475 433.352c0 5.91-4.791 10.701-10.701 10.701s-10.701-4.791-10.701-10.701 4.791-10.701 10.701-10.701 10.701 4.791 10.701 10.701z" fill="#31373d"/></g></svg>