<?xml version="1.0" encoding="iso-8859-1"?>
<!-- Generator: Adobe Illustrator 19.0.0, SVG Export Plug-In . SVG Version: 6.00 Build 0)  -->
<svg version="1.1" id="Capa_1" xmlns="http://www.w3.org/2000/svg" xmlns:xlink="http://www.w3.org/1999/xlink" x="0px" y="0px"
	 viewBox="0 0 511.999 511.999" style="enable-background:new 0 0 511.999 511.999;" xml:space="preserve">
<path style="fill:#E6595A;" d="M463.999,380.202C435,369.648,419.995,337.469,430.55,308.47l37.205-102.218
	c27.914-76.694-11.63-161.496-88.324-189.409c-76.694-27.915-161.496,11.629-189.41,88.323l-37.205,102.218
	c-10.555,28.999-42.733,44.003-71.732,33.449c-21.886-7.966-46.084,3.319-54.05,25.204s3.319,46.084,25.204,54.05
	c47.134,17.155,97.613,7.367,134.502-21.444l-11.056,30.378c-9.254,25.426-22.691,47.695-35.067,58.116
	c-17.963,15.126-20.261,41.948-5.135,59.91c4.963,5.894,11.184,10.1,17.941,12.559c13.832,5.035,29.9,2.738,41.968-7.425
	c32.568-27.425,51.697-70.714,60.2-94.077c-8.503,23.363-21.675,68.819-14.356,110.763c2.712,15.542,13.545,27.63,27.377,32.665
	c6.757,2.459,14.227,3.235,21.817,1.911c23.132-4.037,38.613-26.062,34.576-49.195c-2.781-15.938,1.24-41.634,10.494-67.06
	l10.676-29.333c10.067,45.245,42.285,84.605,88.977,101.6c21.886,7.966,46.084-3.319,54.05-25.204
	C497.169,412.367,485.884,388.168,463.999,380.202z"/>
<path style="opacity:0.05;enable-background:new    ;" d="M452.18,74.232c-2.38-0.628-4.876-0.967-7.454-0.967
	c-16.075,0-29.108,13.032-29.108,29.108s13.032,29.108,29.108,29.108c11.545,0,21.52-6.722,26.225-16.465
	C466.796,100.552,460.465,86.788,452.18,74.232z"/>
<circle style="opacity:0.05;enable-background:new    ;" cx="397.14" cy="60.095" r="13.17"/>
<g>
	<path style="fill:#FFFFFF;" d="M253.132,164.997c-0.9,0-1.815-0.154-2.708-0.48l-22.196-8.079
		c-4.112-1.497-6.231-6.043-4.734-10.153c1.496-4.111,6.041-6.232,10.153-4.734l22.196,8.079c4.112,1.497,6.231,6.042,4.734,10.153
		C259.405,162.999,256.367,164.997,253.132,164.997z"/>
	<path style="fill:#FFFFFF;" d="M408.236,221.45c-0.9,0-1.815-0.154-2.708-0.48l-22.195-8.079c-4.112-1.497-6.23-6.043-4.734-10.153
		c1.496-4.111,6.043-6.232,10.153-4.734l22.195,8.079c4.112,1.497,6.231,6.043,4.734,10.153
		C414.51,219.453,411.472,221.45,408.236,221.45z"/>
</g>
<g>
	<circle style="fill:#F0B0B7;" cx="33.913" cy="305.717" r="13.693"/>
	<circle style="fill:#F0B0B7;" cx="83.28" cy="326.64" r="13.693"/>
	<circle style="fill:#F0B0B7;" cx="134.432" cy="323.598" r="13.693"/>
	<circle style="fill:#F0B0B7;" cx="458.421" cy="460.228" r="13.693"/>
	<circle style="fill:#F0B0B7;" cx="407.163" cy="444.523" r="13.693"/>
	<circle style="fill:#F0B0B7;" cx="369.932" cy="409.309" r="13.693"/>
</g>
<path d="M355.788,162.842c-4.115-1.497-8.657,0.624-10.153,4.734c-1.12,3.077-4.534,4.671-7.61,3.549
	c-3.077-1.12-4.668-4.533-3.548-7.61c0.326-0.896,0.48-1.811,0.48-2.712c-0.001-3.235-1.998-6.271-5.213-7.442
	c-4.116-1.497-8.658,0.624-10.153,4.735c-1.12,3.078-4.54,4.667-7.609,3.548c-3.077-1.12-4.669-4.533-3.549-7.609
	c1.497-4.112-0.624-8.657-4.734-10.153c-4.117-1.497-8.657,0.624-10.153,4.735c-1.99,5.467-1.731,11.381,0.728,16.653
	c2.458,5.273,6.823,9.271,12.29,11.262c4.939,1.797,10.114,1.69,14.719,0.055c2.556,4.364,6.514,7.673,11.327,9.426
	c2.45,0.891,4.959,1.315,7.428,1.315c8.9,0,17.272-5.498,20.488-14.333C362.019,168.884,359.899,164.338,355.788,162.842z
	 M494.974,398.659c-5.655-12.126-15.693-21.326-28.266-25.901c-12.036-4.381-21.657-13.207-27.087-24.853
	c-5.43-11.646-6.008-24.689-1.627-36.725l37.205-102.218c29.363-80.676-12.383-170.2-93.057-199.564
	c-80.676-29.361-170.2,12.383-199.564,93.059l-37.205,102.218c-9.06,24.894-36.689,37.777-61.579,28.715
	c-25.959-9.447-54.757,3.984-64.203,29.939c-3.268,8.979-3.866,18.75-1.802,28.028c-1.773,1.986-3.217,4.32-4.181,6.97
	c-4.075,11.199,1.719,23.626,12.919,27.702c2.431,0.885,4.92,1.304,7.37,1.304c3.441,0,6.798-0.838,9.809-2.368
	c1.891,0.976,3.834,1.841,5.825,2.565c4.146,1.509,8.398,2.83,12.691,3.97c0.339,1.454,0.821,2.886,1.467,4.27
	c2.439,5.232,6.771,9.202,12.196,11.177c2.432,0.885,4.921,1.304,7.371,1.304c7.992,0,15.545-4.478,19.276-11.827
	c4.626-0.081,9.276-0.362,13.916-0.883c2.535,3.833,6.195,6.762,10.593,8.363c2.432,0.885,4.921,1.304,7.371,1.304
	c8.831,0,17.141-5.455,20.333-14.222v-0.001c0.658-1.807,1.033-3.647,1.195-5.479c5.216-2.118,10.294-4.515,15.214-7.193
	l-2.911,7.997c-8.674,23.831-21.519,45.329-32.725,54.766c-10.305,8.678-16.614,20.85-17.765,34.274
	c-1.15,13.424,2.996,26.493,11.674,36.798c5.681,6.747,13.044,11.899,21.291,14.901c16.934,6.163,36.008,2.787,49.781-8.81
	c12.459-10.492,23.011-23.15,31.812-36.162c-1.621,15.624-1.675,32.105,1.126,48.151c3.097,17.737,15.539,32.584,32.472,38.747
	c5.515,2.007,11.343,3.023,17.198,3.023c2.901,0,5.81-0.25,8.689-0.752c13.272-2.316,24.848-9.662,32.595-20.686
	c7.747-11.022,10.738-24.402,8.422-37.674c-2.518-14.433,1.461-39.159,10.135-62.991l2.637-7.247
	c1.953,4.874,4.173,9.645,6.638,14.302c-1.058,1.522-1.944,3.177-2.595,4.965c-1.974,5.425-1.718,11.294,0.722,16.526
	c2.44,5.232,6.771,9.201,12.196,11.176c2.432,0.885,4.921,1.304,7.371,1.304c2.089,0,4.147-0.316,6.117-0.898
	c3.218,3.377,6.591,6.598,10.091,9.64c-2.424,10.48,3.293,21.395,13.654,25.166c2.431,0.885,4.92,1.304,7.37,1.304
	c4.72,0,9.284-1.571,13.004-4.361c4.023,1.886,8.136,3.61,12.295,5.123c1.991,0.725,4.037,1.312,6.113,1.78
	c0.096,0.226,0.174,0.456,0.278,0.68c2.441,5.232,6.771,9.202,12.197,11.177c2.432,0.885,4.921,1.304,7.371,1.304
	c8.831,0,17.141-5.455,20.333-14.224c0.964-2.649,1.358-5.367,1.277-8.026c7.544-5.78,13.366-13.649,16.635-22.629
	C501.223,424.388,500.629,410.786,494.974,398.659z M39.341,307.692c-1.088,2.99-4.409,4.536-7.397,3.45
	c-2.99-1.088-4.537-4.406-3.45-7.396c0.852-2.341,3.07-3.798,5.429-3.798c0.654,0,1.319,0.112,1.968,0.349
	C38.882,301.383,40.429,304.702,39.341,307.692z M88.699,328.61c-1.088,2.99-4.41,4.54-7.397,3.45
	c-1.449-0.527-2.606-1.586-3.257-2.984c-0.651-1.397-0.719-2.964-0.192-4.412c0.852-2.342,3.071-3.798,5.43-3.798
	c0.653,0,1.318,0.112,1.967,0.349C88.24,322.302,89.787,325.62,88.699,328.61z M139.855,325.568
	c-1.089,2.99-4.411,4.539-7.397,3.449c-1.449-0.527-2.606-1.586-3.256-2.984c-0.652-1.397-0.72-2.965-0.193-4.413
	c0.527-1.448,1.586-2.605,2.984-3.255c0.775-0.362,1.604-0.544,2.436-0.544c0.666,0,1.334,0.116,1.977,0.351
	C139.396,319.26,140.943,322.578,139.855,325.568z M375.358,411.283c-1.088,2.99-4.409,4.54-7.397,3.45
	c-1.449-0.527-2.606-1.586-3.257-2.984c-0.651-1.396-0.719-2.964-0.192-4.412c0,0,0,0,0-0.001c0.527-1.448,1.586-2.605,2.983-3.256
	c0.776-0.361,1.605-0.544,2.437-0.544c0.665,0,1.334,0.116,1.977,0.352C374.899,404.975,376.446,408.294,375.358,411.283z
	 M412.589,446.497c-1.088,2.99-4.41,4.537-7.397,3.45c-2.99-1.088-4.537-4.406-3.45-7.397c1.089-2.99,4.409-4.538,7.397-3.449
	c1.449,0.527,2.606,1.587,3.257,2.984C413.048,443.481,413.115,445.048,412.589,446.497z M463.847,462.199
	c-1.088,2.99-4.404,4.537-7.398,3.45c-1.448-0.527-2.605-1.587-3.256-2.984c-0.651-1.396-0.72-2.964-0.192-4.412v-0.001
	c0.527-1.448,1.586-2.605,2.984-3.256c0.775-0.361,1.604-0.544,2.436-0.544c0.665,0,1.333,0.116,1.977,0.351
	C463.387,455.891,464.934,459.209,463.847,462.199z M481.759,431.543c-1.826,5.018-4.725,9.402-8.486,12.99
	c-2.084-1.978-4.59-3.575-7.458-4.619c-5.428-1.974-11.296-1.718-16.526,0.722c-5.019,2.341-8.854,6.432-10.904,11.548
	c-0.173-0.06-0.351-0.11-0.524-0.173c-3.172-1.154-6.311-2.452-9.399-3.851c0.745-4.306,0.178-8.728-1.707-12.773
	c-2.44-5.232-6.771-9.201-12.196-11.176c-6.693-2.436-13.813-1.324-19.339,2.336c-2.277-2.032-4.491-4.147-6.632-6.342
	c0.642-1.101,1.206-2.266,1.657-3.506c4.075-11.199-1.719-23.626-12.918-27.702c-3.841-1.397-7.904-1.654-11.806-0.832
	c-5.222-10.147-9.133-20.886-11.613-32.031c-0.766-3.436-3.705-5.956-7.218-6.184c-3.5-0.225-6.754,1.887-7.958,5.195
	l-10.676,29.332c-9.846,27.053-13.904,53.644-10.855,71.132c1.59,9.103-0.463,18.281-5.776,25.841
	c-5.313,7.56-13.253,12.599-22.357,14.188c-5.963,1.039-12.099,0.505-17.745-1.552c-11.621-4.229-20.16-14.415-22.284-26.582
	c-7.004-40.129,5.763-84.071,13.996-106.692c0.001-0.002,0.001-0.005,0.002-0.007l15.911-43.845
	c1.492-4.113-0.632-8.657-4.743-10.149c-4.113-1.493-8.656,0.632-10.148,4.744L248.15,355.39c-0.001,0.002-0.002,0.004-0.002,0.006
	c-8.233,22.621-26.696,64.486-57.858,90.728c-9.448,7.956-22.536,10.27-34.157,6.04c-5.646-2.055-10.692-5.588-14.591-10.218
	c-5.953-7.069-8.796-16.032-8.007-25.24c0.789-9.207,5.117-17.556,12.185-23.509c13.577-11.434,27.562-34.413,37.408-61.466
	l11.057-30.378c1.209-3.321,0.071-7.041-2.787-9.118c-2.858-2.076-6.747-2.011-9.532,0.166c-9.323,7.28-19.559,13.249-30.484,17.831
	c-2.404-3.06-5.64-5.522-9.558-6.948c-5.424-1.974-11.294-1.718-16.526,0.722c-5.232,2.44-9.202,6.771-11.176,12.196
	c-0.449,1.234-0.767,2.492-0.986,3.758c-3.052,0.307-6.107,0.507-9.151,0.601c-1.876-6.364-6.618-11.797-13.317-14.234
	c-9.954-3.625-20.869,0.567-26.036,9.41c-3.272-0.915-6.514-1.938-9.684-3.092c-0.173-0.063-0.341-0.138-0.513-0.205
	c3.612-11.02-2.148-23.036-13.125-27.031c-2.875-1.047-5.83-1.432-8.705-1.253c-0.576-5.167,0.048-10.391,1.874-15.409
	c6.458-17.746,26.151-26.928,43.896-20.469c33.109,12.048,69.837-5.081,81.885-38.184l37.205-102.218
	C223.84,35.409,304.254-2.089,376.721,24.286s109.965,106.79,83.59,179.257l-37.205,102.218c-5.828,16.013-5.062,33.358,2.157,48.84
	c7.218,15.481,20.013,27.217,36.026,33.045c8.597,3.128,15.461,9.418,19.326,17.709
	C484.482,413.646,484.888,422.947,481.759,431.543z M255.578,115.822c-4.114-1.499-8.657,0.624-10.152,4.735l-1.324,3.64
	c-1.496,4.111,0.624,8.657,4.735,10.152c0.895,0.325,1.808,0.48,2.708,0.48c3.236,0,6.274-1.998,7.445-5.216l1.324-3.64
	C261.809,121.863,259.69,117.317,255.578,115.822z M410.686,172.276c-4.112-1.499-8.658,0.622-10.153,4.733l-1.326,3.64
	c-1.498,4.111,0.621,8.657,4.732,10.154c0.895,0.326,1.81,0.481,2.71,0.481c3.235,0,6.273-1.997,7.444-5.213l1.326-3.64
	C416.915,178.318,414.797,173.772,410.686,172.276z"/>
<g>
</g>
<g>
</g>
<g>
</g>
<g>
</g>
<g>
</g>
<g>
</g>
<g>
</g>
<g>
</g>
<g>
</g>
<g>
</g>
<g>
</g>
<g>
</g>
<g>
</g>
<g>
</g>
<g>
</g>
</svg>
