<svg id="Layer_1" enable-background="new 0 0 511.979 511.979" height="512" viewBox="0 0 511.979 511.979" width="512" xmlns="http://www.w3.org/2000/svg"><g><circle cx="255.989" cy="255.989" fill="#f1f1fb" r="240.99"/><path d="m255.99 15c-.081 0-.161.003-.242.003v481.973c.081 0 .161.003.242.003 133.095 0 240.99-107.895 240.99-240.99s-107.896-240.989-240.99-240.989z" fill="#e0d6fc"/><g><path d="m356.742 201.844c-8.284 0-15-6.716-15-15v-23.287c0-8.284 6.716-15 15-15s15 6.716 15 15v23.287c0 8.284-6.716 15-15 15z" fill="#3f5959"/></g><path d="m173.068 326.156 14.18-28.482c7.358 0 43.103-20.072 45.063-27.165h126.485c6.868 0 13.029-4.221 15.51-10.624l4.362-11.259c1.585-4.09 5.52-6.785 9.906-6.785h24.577c5.35 0 10.114-3.384 11.876-8.435l11.524-33.043c2.305-6.61-2.602-13.518-9.602-13.518h-287.717c-6.934 0-12.913 4.876-14.306 11.669l-12.457 60.715c-1.195 5.825 3.255 11.281 9.201 11.281h37.476c-1.554 5.525 8.182 55.646 13.922 55.646z" fill="#8db9c4"/><g><path d="m222.197 339.842h-4.899c-8.284 0-15-6.716-15-15s6.716-15 15-15h4.899c27.188 0 51.657-17.182 60.888-42.754l.604-1.673c2.814-7.792 11.412-11.827 19.203-9.014 7.792 2.813 11.828 11.411 9.014 19.203l-.604 1.671c-13.509 37.423-49.318 62.567-89.105 62.567z" fill="#5c5454"/></g><path d="m130.935 370.794c-1.554 5.526 2.599 11.008 8.339 11.008h49.825c7.358 0 13.812-4.912 15.771-12.004l27.437-99.288h-73.165z" fill="#d55f05"/><path d="m112.468 259.228c-1.195 5.825 3.255 11.281 9.201 11.281h237.127c6.868 0 13.029-4.221 15.51-10.624l4.362-11.259c1.585-4.09 5.52-6.785 9.906-6.785h-272.54z" fill="#678c97"/><path d="m426.95 186.844h-171.203v83.665h103.05c6.868 0 13.029-4.221 15.51-10.624l4.362-11.259c1.585-4.09 5.52-6.785 9.906-6.785h24.577c5.35 0 10.114-3.384 11.876-8.435l11.524-33.043c2.306-6.61-2.601-13.519-9.602-13.519z" fill="#678c97"/><path d="m302.891 256.401c-7.791-2.813-16.389 1.223-19.203 9.014l-.604 1.673c-5.126 14.201-14.956 25.808-27.337 33.329v33.232c25.338-9.647 46.013-29.94 55.555-56.374l.604-1.671c2.813-7.792-1.223-16.39-9.015-19.203z" fill="#292929"/><path d="m255.747 270.509h103.05c6.868 0 13.029-4.221 15.51-10.624l4.362-11.259c1.585-4.09 5.52-6.785 9.906-6.785h-132.828z" fill="#3f5959"/><path d="m438.042 435.936c47.685-48.228 73.937-112.066 73.937-179.946 0-68.377-26.627-132.662-74.978-181.012s-112.634-74.978-181.012-74.978c-67.91 0-131.775 26.276-180.01 74-.047.046-.098.084-.144.13-.028.028-.051.06-.079.088-.258.255-.521.503-.778.759-48.351 48.351-74.978 112.635-74.978 181.012s26.627 132.662 74.978 181.012 112.634 74.978 181.012 74.978 132.662-26.627 181.012-74.978c.244-.244.478-.494.721-.738.042-.041.088-.075.129-.117.067-.067.123-.142.19-.21zm-22.254-339.745c42.684 42.684 66.191 99.435 66.191 159.798 0 54.93-19.471 106.864-55.139 147.933l-318.783-318.783c41.068-35.668 93.002-55.139 147.932-55.139 60.365 0 117.115 23.507 159.799 66.191zm-319.597 319.597c-42.684-42.684-66.191-99.434-66.191-159.799 0-55.742 20.059-108.393 56.74-149.741l318.992 318.992c-41.348 36.68-94 56.74-149.742 56.74-60.365-.001-117.115-23.508-159.799-66.192z" fill="#f10"/><path d="m255.989 0c-.081 0-.161.003-.242.003v30c.081 0 .161-.003.242-.003 60.364 0 117.115 23.507 159.799 66.191s66.191 99.435 66.191 159.798c0 54.93-19.471 106.864-55.139 147.933l-171.093-171.092v42.426l149.984 149.984c-41.348 36.68-94 56.74-149.742 56.74-.081 0-.161-.003-.242-.003v30c.081 0 .161.003.242.003 68.377 0 132.662-26.627 181.012-74.978.244-.244.478-.494.721-.738.042-.041.088-.075.129-.117.068-.068.124-.142.19-.211 47.685-48.228 73.937-112.066 73.937-179.946 0-68.377-26.627-132.662-74.978-181.012s-112.633-74.978-181.011-74.978z" fill="#c30010"/></g></svg>